<?xml version="1.0" encoding="utf-8"?>
<!-- Generator: Adobe Illustrator 22.1.0, SVG Export Plug-In . SVG Version: 6.00 Build 0)  -->
<svg version="1.1" id="Layer_1" xmlns="http://www.w3.org/2000/svg" xmlns:xlink="http://www.w3.org/1999/xlink" x="0px" y="0px"
	 width="1024px" height="768px" viewBox="0 0 1024 768" enable-background="new 0 0 1024 768" xml:space="preserve">
<ellipse transform="matrix(0.957 -0.2901 0.2901 0.957 -79.5087 171.5601)" fill="#FF4EC7" cx="538.9" cy="353.9" rx="5.8" ry="17.5"/>
<ellipse transform="matrix(0.7854 -0.619 0.619 0.7854 -124.6401 365.1766)" fill="#FF4EC7" cx="464.4" cy="362.4" rx="17.5" ry="5.8"/>
<ellipse transform="matrix(0.9897 -0.1435 0.1435 0.9897 -43.0198 74.7831)" fill="#FF4EC7" cx="497" cy="335.7" rx="17.5" ry="5.8"/>
<ellipse transform="matrix(0.1983 -0.9801 0.9801 0.1983 94.6131 792.379)" fill="#FF4EC7" cx="531.7" cy="338.4" rx="5.8" ry="17.5"/>
<ellipse transform="matrix(0.1983 -0.9801 0.9801 0.1983 115.4063 832.1448)" fill="#FF4EC7" cx="566.4" cy="345.5" rx="5.8" ry="17.5"/>
<ellipse transform="matrix(0.1983 -0.9801 0.9801 0.1983 138.6822 875.2689)" fill="#FF4EC7" cx="604.4" cy="352.9" rx="5.8" ry="17.5"/>
<ellipse transform="matrix(0.1983 -0.9801 0.9801 0.1983 163.2649 917.3241)" fill="#FF4EC7" cx="642.4" cy="358.9" rx="5.8" ry="17.5"/>
<ellipse transform="matrix(0.9812 -0.1929 0.1929 0.9812 -60.9979 118.402)" fill="#FF4EC7" cx="577.6" cy="372.5" rx="5.8" ry="17.5"/>
<ellipse transform="matrix(0.9812 -0.1929 0.1929 0.9812 -67.7577 120.277)" fill="#FF4EC7" cx="583.9" cy="408.1" rx="5.8" ry="17.5"/>
<ellipse transform="matrix(0.9812 -0.1929 0.1929 0.9812 -74.6124 122.6301)" fill="#FF4EC7" cx="592.5" cy="444.5" rx="5.8" ry="17.5"/>
<ellipse transform="matrix(0.4374 -0.8993 0.8993 0.4374 -74.788 817.7114)" fill="#FF4EC7" cx="616.1" cy="468.6" rx="5.8" ry="17.5"/>
<ellipse transform="matrix(0.5713 -0.8208 0.8208 0.5713 -193.2667 655.4125)" fill="#FF4EC7" cx="530.7" cy="512.7" rx="5.8" ry="17.5"/>
<ellipse transform="matrix(0.5713 -0.8208 0.8208 0.5713 -196.2795 689.9128)" fill="#FF4EC7" cx="562.2" cy="532.8" rx="5.8" ry="17.5"/>
<ellipse transform="matrix(0.6426 -0.7662 0.7662 0.6426 -213.3797 574.0789)" fill="#FF4EC7" cx="508.6" cy="515.7" rx="17.5" ry="5.8"/>
<ellipse transform="matrix(0.6426 -0.7662 0.7662 0.6426 -243.4132 565.6976)" fill="#FF4EC7" cx="484.6" cy="543.7" rx="17.5" ry="5.8"/>
<ellipse transform="matrix(0.6426 -0.7662 0.7662 0.6426 -205.7988 424.9963)" fill="#FF4EC7" cx="352.6" cy="433.1" rx="17.5" ry="5.8"/>
<ellipse transform="matrix(0.2465 -0.9691 0.9691 0.2465 -195.1417 684.5065)" fill="#FF4EC7" cx="342.6" cy="467.7" rx="17.5" ry="5.8"/>
<ellipse transform="matrix(0.2211 -0.9753 0.9753 0.2211 34.6822 1008.6801)" fill="#FF4EC7" cx="648.8" cy="482.6" rx="5.8" ry="17.5"/>
<ellipse transform="matrix(5.507776e-02 -0.9985 0.9985 5.507776e-02 199.9013 773.5555)" fill="#FF4EC7" cx="508.7" cy="281.2" rx="17.5" ry="5.8"/>
<ellipse transform="matrix(5.507776e-02 -0.9985 0.9985 5.507776e-02 238.6814 742.5338)" fill="#FF4EC7" cx="511.7" cy="245.2" rx="17.5" ry="5.8"/>
<ellipse transform="matrix(0.8925 -0.4511 0.4511 0.8925 -39.946 250.6728)" fill="#FF4EC7" cx="505.8" cy="209.1" rx="5.8" ry="17.5"/>
<ellipse transform="matrix(0.7971 -0.6039 0.6039 0.7971 -9.1904 330.2285)" fill="#FF4EC7" cx="486.8" cy="178.8" rx="5.8" ry="17.5"/>
<ellipse transform="matrix(0.1486 -0.9889 0.9889 0.1486 224.1783 728.5928)" fill="#FF4EC7" cx="535.2" cy="234.1" rx="5.8" ry="17.5"/>
<ellipse transform="matrix(0.1486 -0.9889 0.9889 0.1486 251.4406 768.2579)" fill="#FF4EC7" cx="571.9" cy="238.1" rx="5.8" ry="17.5"/>
<ellipse transform="matrix(0.1486 -0.9889 0.9889 0.1486 278.7028 807.923)" fill="#FF4EC7" cx="608.6" cy="242.1" rx="5.8" ry="17.5"/>
<ellipse transform="matrix(0.1486 -0.9889 0.9889 0.1486 305.965 847.5881)" fill="#FF4EC7" cx="645.2" cy="246.1" rx="5.8" ry="17.5"/>
<ellipse transform="matrix(0.1486 -0.9889 0.9889 0.1486 333.2272 887.2532)" fill="#FF4EC7" cx="681.9" cy="250.1" rx="5.8" ry="17.5"/>
<ellipse transform="matrix(0.1486 -0.9889 0.9889 0.1486 360.4894 926.9184)" fill="#FF4EC7" cx="718.6" cy="254.1" rx="5.8" ry="17.5"/>
<ellipse transform="matrix(0.1092 -0.994 0.994 0.1092 198.5702 778.2279)" fill="#FF4EC7" cx="533.5" cy="278.3" rx="5.8" ry="17.5"/>
<ellipse transform="matrix(0.1092 -0.994 0.994 0.1092 226.7929 817.3097)" fill="#FF4EC7" cx="569.4" cy="282.1" rx="5.8" ry="17.5"/>
<ellipse transform="matrix(0.1092 -0.994 0.994 0.1092 255.9559 856.6595)" fill="#FF4EC7" cx="605.9" cy="285.5" rx="5.8" ry="17.5"/>
<ellipse transform="matrix(0.1092 -0.994 0.994 0.1092 285.119 896.0094)" fill="#FF4EC7" cx="642.5" cy="288.9" rx="5.8" ry="17.5"/>
<ellipse transform="matrix(0.1092 -0.994 0.994 0.1092 314.282 935.3593)" fill="#FF4EC7" cx="679" cy="292.3" rx="5.8" ry="17.5"/>
<ellipse transform="matrix(0.1092 -0.994 0.994 0.1092 343.4451 974.7091)" fill="#FF4EC7" cx="715.6" cy="295.7" rx="5.8" ry="17.5"/>
<ellipse transform="matrix(0.1983 -0.9801 0.9801 0.1983 186.7788 958.0724)" fill="#FF4EC7" cx="679.1" cy="364.9" rx="5.8" ry="17.5"/>
<ellipse transform="matrix(0.2546 -0.9671 0.9671 0.2546 101.4467 738.6267)" fill="#FF4EC7" cx="529.8" cy="303.5" rx="5.8" ry="17.5"/>
<ellipse transform="matrix(0.2546 -0.9671 0.9671 0.2546 82.3183 697.8697)" fill="#FF4EC7" cx="493.8" cy="295.5" rx="5.8" ry="17.5"/>
<ellipse transform="matrix(0.982 -0.1887 0.1887 0.982 -71.7064 76.8692)" fill="#FF4EC7" cx="367.8" cy="415" rx="17.5" ry="5.8"/>
<ellipse transform="matrix(0.982 -0.1887 0.1887 0.982 -73.931 69.8824)" fill="#FF4EC7" cx="330" cy="423.2" rx="17.5" ry="5.8"/>
<ellipse transform="matrix(0.2751 -0.9614 0.9614 0.2751 -191.2663 589.0208)" fill="#FF4EC7" cx="295" cy="421.3" rx="5.8" ry="17.5"/>
<ellipse transform="matrix(0.4341 -0.9009 0.9009 0.4341 -240.8572 499.2752)" fill="#FF4EC7" cx="277" cy="441.3" rx="17.5" ry="5.8"/>
<ellipse transform="matrix(0.1324 -0.9912 0.9912 0.1324 212.6906 870.884)" fill="#FF4EC7" cx="603.8" cy="313.9" rx="5.8" ry="17.5"/>
<ellipse transform="matrix(0.1324 -0.9912 0.9912 0.1324 184.2442 831.5142)" fill="#FF4EC7" cx="567.1" cy="310.5" rx="5.8" ry="17.5"/>
<ellipse transform="matrix(0.1324 -0.9912 0.9912 0.1324 269.9554 949.4228)" fill="#FF4EC7" cx="677.3" cy="320.5" rx="5.8" ry="17.5"/>
<ellipse transform="matrix(0.1324 -0.9912 0.9912 0.1324 296.0663 987.2544)" fill="#FF4EC7" cx="712" cy="324.5" rx="5.8" ry="17.5"/>
<ellipse transform="matrix(6.783791e-02 -0.9977 0.9977 6.783791e-02 314.5846 1039.0343)" fill="#FF4EC7" cx="713.3" cy="351.2" rx="17.5" ry="5.8"/>
<ellipse transform="matrix(6.783791e-02 -0.9977 0.9977 6.783791e-02 358.112 1002.877)" fill="#FF4EC7" cx="715.7" cy="309.8" rx="17.5" ry="5.8"/>
<ellipse transform="matrix(6.783791e-02 -0.9977 0.9977 6.783791e-02 401.6394 966.7198)" fill="#FF4EC7" cx="718.2" cy="268.4" rx="17.5" ry="5.8"/>
<ellipse transform="matrix(6.783791e-02 -0.9977 0.9977 6.783791e-02 445.1667 930.5625)" fill="#FF4EC7" cx="720.6" cy="227" rx="17.5" ry="5.8"/>
<ellipse transform="matrix(0.9986 -5.333762e-02 5.333762e-02 0.9986 -10.3744 37.6801)" fill="#FF4EC7" cx="700.8" cy="213.2" rx="17.5" ry="5.8"/>
<ellipse transform="matrix(7.089428e-02 -0.9975 0.9975 7.089428e-02 406.8043 857.0818)" fill="#FF4EC7" cx="663.5" cy="210.2" rx="5.8" ry="17.5"/>
<ellipse transform="matrix(7.089428e-02 -0.9975 0.9975 7.089428e-02 379.1853 815.7479)" fill="#FF4EC7" cx="627.5" cy="204.3" rx="5.8" ry="17.5"/>
<ellipse transform="matrix(7.089428e-02 -0.9975 0.9975 7.089428e-02 351.5664 774.4141)" fill="#FF4EC7" cx="591.5" cy="198.5" rx="5.8" ry="17.5"/>
<ellipse transform="matrix(0.7601 -0.6498 0.6498 0.7601 14.3884 408.2672)" fill="#FF4EC7" cx="560.2" cy="184.6" rx="5.8" ry="17.5"/>
<ellipse transform="matrix(0.9669 -0.2552 0.2552 0.9669 -20.151 143.6463)" fill="#FF4EC7" cx="543.5" cy="149.5" rx="5.8" ry="17.5"/>
<ellipse transform="matrix(6.783791e-02 -0.9977 0.9977 6.783791e-02 274.0825 1070.4088)" fill="#FF4EC7" cx="709.9" cy="388.5" rx="17.5" ry="5.8"/>
<ellipse transform="matrix(0.1191 -0.9929 0.9929 0.1191 197.8504 1073.9774)" fill="#FF4EC7" cx="704.2" cy="425.5" rx="17.5" ry="5.8"/>
<ellipse transform="matrix(0.1191 -0.9929 0.9929 0.1191 158.0503 1101.083)" fill="#FF4EC7" cx="699.5" cy="461.5" rx="17.5" ry="5.8"/>
<ellipse transform="matrix(0.1324 -0.9912 0.9912 0.1324 241.509 910.0529)" fill="#FF4EC7" cx="640.6" cy="317.1" rx="5.8" ry="17.5"/>
<ellipse transform="matrix(0.8445 -0.5355 0.5355 0.8445 -137.3947 291.6697)" fill="#FF4EC7" cx="433.6" cy="382.4" rx="17.5" ry="5.8"/>
<ellipse transform="matrix(0.8445 -0.5355 0.5355 0.8445 -152.6027 278.0112)" fill="#FF4EC7" cx="402.5" cy="401.8" rx="17.5" ry="5.8"/>
<ellipse transform="matrix(0.9867 -0.1626 0.1626 0.9867 -56.0774 93.8959)" fill="#FF4EC7" cx="545.6" cy="389.6" rx="5.8" ry="17.5"/>
<ellipse transform="matrix(0.9867 -0.1626 0.1626 0.9867 -62.2925 95.4029)" fill="#FF4EC7" cx="551.9" cy="428.4" rx="5.8" ry="17.5"/>
</svg>
