<?xml version="1.0" encoding="utf-8"?>
<!-- Generator: Adobe Illustrator 22.1.0, SVG Export Plug-In . SVG Version: 6.00 Build 0)  -->
<svg version="1.1" id="Layer_1" xmlns="http://www.w3.org/2000/svg" xmlns:xlink="http://www.w3.org/1999/xlink" x="0px" y="0px"
	 width="1024px" height="768px" viewBox="0 0 1024 768" enable-background="new 0 0 1024 768" xml:space="preserve">
<ellipse transform="matrix(0.853 -0.5219 0.5219 0.853 -216.3919 287.4606)" fill="#FF3F32" cx="402.1" cy="527.9" rx="17.5" ry="5.8"/>
<ellipse transform="matrix(0.9545 -0.2983 0.2983 0.9545 -127.012 181.6848)" fill="#FF3F32" cx="531.6" cy="506.9" rx="17.5" ry="5.8"/>
<ellipse fill="#FF3F32" cx="557" cy="512.7" rx="5.8" ry="17.5"/>
<ellipse transform="matrix(0.9099 -0.4148 0.4148 0.9099 -158.7923 286.9997)" fill="#FF3F32" cx="581.3" cy="509.1" rx="17.5" ry="5.8"/>
<ellipse transform="matrix(0.9674 -0.2534 0.2534 0.9674 -105.5721 172.3339)" fill="#FF3F32" cx="616.3" cy="496.1" rx="17.5" ry="5.8"/>
<ellipse transform="matrix(0.9962 -8.707584e-02 8.707584e-02 0.9962 -40.326 58.6694)" fill="#FF3F32" cx="652.3" cy="491.6" rx="17.5" ry="5.8"/>
<ellipse transform="matrix(0.9812 -0.1931 0.1931 0.9812 -99.7411 95.5261)" fill="#FF3F32" cx="440.2" cy="559.4" rx="17.5" ry="5.8"/>
<ellipse transform="matrix(0.9812 -0.1931 0.1931 0.9812 -97.3931 102.182)" fill="#FF3F32" cx="475.5" cy="550.7" rx="17.5" ry="5.8"/>
<ellipse transform="matrix(0.9812 -0.1931 0.1931 0.9812 -95.1242 109.1485)" fill="#FF3F32" cx="512.4" cy="542.6" rx="17.5" ry="5.8"/>
<ellipse transform="matrix(7.589241e-02 -0.9971 0.9971 7.589241e-02 -34.7434 1048.6218)" fill="#FF3F32" cx="548.4" cy="543.1" rx="5.8" ry="17.5"/>
<ellipse transform="matrix(0.9623 -0.272 0.272 0.9623 -124.4193 179.5276)" fill="#FF3F32" cx="585.4" cy="538.6" rx="17.5" ry="5.8"/>
<ellipse transform="matrix(0.434 -0.9009 0.9009 0.434 -190.8463 813.3484)" fill="#FF3F32" cx="551.9" cy="558.6" rx="5.8" ry="17.5"/>
<ellipse transform="matrix(0.1765 -0.9843 0.9843 0.1765 -79.1967 1047.4537)" fill="#FF3F32" cx="586.4" cy="571.1" rx="5.8" ry="17.5"/>
<ellipse transform="matrix(0.955 -0.2966 0.2966 0.955 -128.6595 208.054)" fill="#FF3F32" cx="621.4" cy="528.1" rx="17.5" ry="5.8"/>
<ellipse transform="matrix(0.955 -0.2966 0.2966 0.955 -124.3927 218.1782)" fill="#FF3F32" cx="656.9" cy="519.1" rx="17.5" ry="5.8"/>
<ellipse transform="matrix(0.955 -0.2966 0.2966 0.955 -119.6811 228.2348)" fill="#FF3F32" cx="692.4" cy="508.6" rx="17.5" ry="5.8"/>
<ellipse transform="matrix(0.9593 -0.2824 0.2824 0.9593 -109.9207 224.0963)" fill="#FF3F32" cx="722.4" cy="493.3" rx="17.5" ry="5.8"/>
<ellipse transform="matrix(0.7071 -0.7071 0.7071 0.7071 -132.1353 679.4979)" fill="#FF3F32" cx="754.2" cy="499.3" rx="5.8" ry="17.5"/>
<ellipse transform="matrix(0.9096 -0.4155 0.4155 0.9096 -149.7097 354.0053)" fill="#FF3F32" cx="738.7" cy="521.1" rx="17.5" ry="5.8"/>
<ellipse transform="matrix(0.9096 -0.4155 0.4155 0.9096 -157.5636 343.2401)" fill="#FF3F32" cx="710" cy="533.7" rx="17.5" ry="5.8"/>
<ellipse transform="matrix(0.9814 -0.192 0.192 0.9814 -92.523 139.6084)" fill="#FF3F32" cx="674.2" cy="547.3" rx="17.5" ry="5.8"/>
<ellipse transform="matrix(0.2763 -0.9611 0.9611 0.2763 -61.8094 1004.312)" fill="#FF3F32" cx="636" cy="543.2" rx="5.8" ry="17.5"/>
<ellipse transform="matrix(0.6313 -0.7756 0.7756 0.6313 -207.1415 675.5883)" fill="#FF3F32" cx="606.9" cy="555.6" rx="5.8" ry="17.5"/>
<ellipse transform="matrix(0.9463 -0.3234 0.3234 0.9463 -159.5953 145.6076)" fill="#FF3F32" cx="358.4" cy="553.1" rx="17.5" ry="5.8"/>
<ellipse transform="matrix(0.853 -0.5219 0.5219 0.853 -229.7231 248.1252)" fill="#FF3F32" cx="325.6" cy="531.9" rx="17.5" ry="5.8"/>
<ellipse transform="matrix(0.9853 -0.171 0.171 0.9853 -83.4331 69.4192)" fill="#FF3F32" cx="361.1" cy="518.9" rx="17.5" ry="5.8"/>
<ellipse transform="matrix(0.7071 -0.7071 0.7071 0.7071 -265.8403 430.0114)" fill="#FF3F32" cx="386.1" cy="535.9" rx="5.8" ry="17.5"/>
<ellipse transform="matrix(0.7071 -0.7071 0.7071 0.7071 -276.4027 455.5114)" fill="#FF3F32" cx="411.6" cy="561.4" rx="5.8" ry="17.5"/>
<ellipse transform="matrix(0.3864 -0.9223 0.9223 0.3864 -289.9858 606.9117)" fill="#FF3F32" cx="311.1" cy="521.4" rx="17.5" ry="5.8"/>
<ellipse transform="matrix(0.2998 -0.954 0.954 0.2998 -237.8192 654.79)" fill="#FF3F32" cx="327.1" cy="489.4" rx="17.5" ry="5.8"/>
<ellipse transform="matrix(0.1338 -0.991 0.991 0.1338 -202.7323 715.8541)" fill="#FF3F32" cx="308.1" cy="473.9" rx="5.8" ry="17.5"/>
<ellipse transform="matrix(0.2757 -0.9613 0.9613 0.2757 -262.4959 626.0607)" fill="#FF3F32" cx="284.2" cy="487.2" rx="17.5" ry="5.8"/>
<ellipse transform="matrix(0.2757 -0.9613 0.9613 0.2757 -303.62 643.4854)" fill="#FF3F32" cx="275.2" cy="523.2" rx="17.5" ry="5.8"/>
<ellipse transform="matrix(0.2757 -0.9613 0.9613 0.2757 -345.1062 660.2632)" fill="#FF3F32" cx="265.6" cy="559.1" rx="17.5" ry="5.8"/>
<ellipse transform="matrix(0.9866 -0.1632 0.1632 0.9866 -89.3802 54.0885)" fill="#FF3F32" cx="284.6" cy="571.1" rx="17.5" ry="5.8"/>
<ellipse transform="matrix(0.9866 -0.1632 0.1632 0.9866 -87.9935 59.9707)" fill="#FF3F32" cx="321.1" cy="565.6" rx="17.5" ry="5.8"/>
<ellipse transform="matrix(0.853 -0.5219 0.5219 0.853 -202.3569 301.0143)" fill="#FF3F32" cx="433.2" cy="509.8" rx="17.5" ry="5.8"/>
<ellipse transform="matrix(0.853 -0.5219 0.5219 0.853 -188.6001 314.7854)" fill="#FF3F32" cx="464.6" cy="492.2" rx="17.5" ry="5.8"/>
<ellipse transform="matrix(0.853 -0.5219 0.5219 0.853 -174.3214 328.8409)" fill="#FF3F32" cx="496.6" cy="473.9" rx="17.5" ry="5.8"/>
<ellipse transform="matrix(0.853 -0.5219 0.5219 0.853 -160.2864 342.3946)" fill="#FF3F32" cx="527.7" cy="455.8" rx="17.5" ry="5.8"/>
<ellipse transform="matrix(0.853 -0.5219 0.5219 0.853 -146.5296 356.1656)" fill="#FF3F32" cx="559.1" cy="438.2" rx="17.5" ry="5.8"/>
<ellipse transform="matrix(0.9674 -0.2533 0.2533 0.9674 -88.471 137.3292)" fill="#FF3F32" cx="489.1" cy="412.2" rx="17.5" ry="5.8"/>
<ellipse transform="matrix(0.7071 -0.7071 0.7071 0.7071 -138.2607 463.6599)" fill="#FF3F32" cx="490.6" cy="398.7" rx="17.5" ry="5.8"/>
<ellipse transform="matrix(0.1501 -0.9887 0.9887 0.1501 57.9126 847.816)" fill="#FF3F32" cx="522.1" cy="390.2" rx="5.8" ry="17.5"/>
<ellipse transform="matrix(0.1501 -0.9887 0.9887 0.1501 85.2463 888.7819)" fill="#FF3F32" cx="559.5" cy="394.8" rx="6.9" ry="18.2"/>
<ellipse transform="matrix(0.1501 -0.9887 0.9887 0.1501 104.6528 933.5881)" fill="#FF3F32" cx="595.3" cy="405.9" rx="6.9" ry="18.2"/>
<ellipse transform="matrix(0.9457 -0.3251 0.3251 0.9457 -99.1275 227.4982)" fill="#FF3F32" cx="631.3" cy="410.4" rx="18.2" ry="6.9"/>
<ellipse transform="matrix(0.9081 -0.4187 0.4187 0.9081 -102.7315 300.7306)" fill="#FF3F32" cx="633.8" cy="384.4" rx="6.9" ry="18.2"/>
<ellipse transform="matrix(0.5 -0.866 0.866 0.5 -35.5922 732.2059)" fill="#FF3F32" cx="616.3" cy="396.9" rx="6.9" ry="18.2"/>
<ellipse transform="matrix(0.5 -0.866 0.866 0.5 -32.9057 694.8591)" fill="#FF3F32" cx="585.3" cy="375.9" rx="6.9" ry="18.2"/>
<ellipse transform="matrix(0.7071 -0.7071 0.7071 0.7071 -168.2907 451.3171)" fill="#FF3F32" cx="460.6" cy="428.8" rx="17.5" ry="5.8"/>
<ellipse fill="#FF3F32" cx="430.1" cy="441.3" rx="17.5" ry="5.8"/>
<ellipse transform="matrix(0.9984 -5.625951e-02 5.625951e-02 0.9984 -24.358 22.9669)" fill="#FF3F32" cx="395.7" cy="444.1" rx="17.5" ry="5.8"/>
<ellipse transform="matrix(0.1627 -0.9867 0.9867 0.1627 -125.9088 787.8273)" fill="#FF3F32" cx="401.2" cy="468.1" rx="5.8" ry="17.5"/>
<ellipse transform="matrix(0.7391 -0.6736 0.6736 0.7391 -207.1487 374.4198)" fill="#FF3F32" cx="379.7" cy="454.6" rx="5.8" ry="17.5"/>
<ellipse transform="matrix(0.9587 -0.2845 0.2845 0.9587 -112.8767 148.7417)" fill="#FF3F32" cx="455.6" cy="462.9" rx="5.8" ry="17.5"/>
<ellipse transform="matrix(0.9513 -0.3082 0.3082 0.9513 -114.9649 167.8964)" fill="#FF3F32" cx="474.1" cy="447.9" rx="17.5" ry="5.8"/>
<ellipse transform="matrix(0.9926 -0.1216 0.1216 0.9926 -49.6518 65.091)" fill="#FF3F32" cx="508.6" cy="439.4" rx="17.5" ry="5.8"/>
<ellipse transform="matrix(0.9513 -0.3082 0.3082 0.9513 -119.6188 202.429)" fill="#FF3F32" cx="581.1" cy="479.9" rx="17.5" ry="5.8"/>
<ellipse transform="matrix(0.1535 -0.9882 0.9882 0.1535 67.3397 945.5688)" fill="#FF3F32" cx="585.5" cy="433.5" rx="5.8" ry="17.5"/>
<ellipse transform="matrix(0.9402 -0.3407 0.3407 0.9402 -141.1115 173.5905)" fill="#FF3F32" cx="423.7" cy="488.6" rx="5.8" ry="17.5"/>
<ellipse transform="matrix(0.9978 -6.579694e-02 6.579694e-02 0.9978 -25.6904 35.3977)" fill="#FF3F32" cx="524.6" cy="407.7" rx="17.5" ry="5.8"/>
<ellipse transform="matrix(0.6102 -0.7922 0.7922 0.6102 -117.5484 603.5401)" fill="#FF3F32" cx="554.6" cy="421.2" rx="5.8" ry="17.5"/>
<ellipse transform="matrix(0.9848 -0.1734 0.1734 0.9848 -67.0538 97.0974)" fill="#FF3F32" cx="522.1" cy="432.2" rx="5.8" ry="17.5"/>
<ellipse transform="matrix(0.5343 -0.8453 0.8453 0.5343 -151.0395 673.2806)" fill="#FF3F32" cx="535.6" cy="473.7" rx="5.8" ry="17.5"/>
<ellipse transform="matrix(0.5343 -0.8453 0.8453 0.5343 -153.0869 708.5641)" fill="#FF3F32" cx="566.6" cy="493.2" rx="5.8" ry="17.5"/>
</svg>
