<?xml version="1.0" encoding="utf-8"?>
<!-- Generator: Adobe Illustrator 22.1.0, SVG Export Plug-In . SVG Version: 6.00 Build 0)  -->
<svg version="1.1" id="Layer_1" xmlns="http://www.w3.org/2000/svg" xmlns:xlink="http://www.w3.org/1999/xlink" x="0px" y="0px"
	 width="1024px" height="768px" viewBox="0 0 1024 768" enable-background="new 0 0 1024 768" xml:space="preserve">
<g>
	
		<ellipse transform="matrix(0.9834 -0.1813 0.1813 0.9834 -79.1411 79.8865)" fill="#37FFFF" cx="397.4" cy="472.8" rx="5.8" ry="17.5"/>
	
		<ellipse transform="matrix(0.8895 -0.4569 0.4569 0.8895 -184.9248 244.3978)" fill="#37FFFF" cx="412.9" cy="504.6" rx="5.8" ry="17.5"/>
	
		<ellipse transform="matrix(0.8895 -0.4569 0.4569 0.8895 -197.2185 256.56)" fill="#37FFFF" cx="431.9" cy="536.1" rx="5.8" ry="17.5"/>
	
		<ellipse transform="matrix(0.5967 -0.8025 0.8025 0.5967 -188.1968 505.1662)" fill="#37FFFF" cx="408.5" cy="439.8" rx="17.5" ry="5.8"/>
	
		<ellipse transform="matrix(0.5967 -0.8025 0.8025 0.5967 -156.095 512.2592)" fill="#37FFFF" cx="431.6" cy="411.4" rx="17.5" ry="5.8"/>
	
		<ellipse transform="matrix(0.5967 -0.8025 0.8025 0.5967 -123.9933 519.3521)" fill="#37FFFF" cx="454.7" cy="383" rx="17.5" ry="5.8"/>
	
		<ellipse transform="matrix(0.5967 -0.8025 0.8025 0.5967 -91.8916 526.445)" fill="#37FFFF" cx="477.8" cy="354.6" rx="17.5" ry="5.8"/>
	
		<ellipse transform="matrix(0.5967 -0.8025 0.8025 0.5967 -59.7899 533.538)" fill="#37FFFF" cx="500.9" cy="326.3" rx="17.5" ry="5.8"/>
	
		<ellipse transform="matrix(0.5967 -0.8025 0.8025 0.5967 -26.5745 539.6282)" fill="#37FFFF" cx="523.6" cy="296.3" rx="17.5" ry="5.8"/>
	
		<ellipse transform="matrix(0.5967 -0.8025 0.8025 0.5967 -227.8375 420.7719)" fill="#37FFFF" cx="304.7" cy="437.1" rx="17.5" ry="5.8"/>
	
		<ellipse transform="matrix(0.6399 -0.7685 0.7685 0.6399 -245.2213 405.4663)" fill="#37FFFF" cx="310" cy="464.4" rx="5.8" ry="17.5"/>
	
		<ellipse transform="matrix(0.6399 -0.7685 0.7685 0.6399 -232.3712 370.3809)" fill="#37FFFF" cx="279" cy="433.1" rx="5.8" ry="17.5"/>
	
		<ellipse transform="matrix(0.6399 -0.7685 0.7685 0.6399 -224.3427 340.7251)" fill="#37FFFF" cx="251.4" cy="409.7" rx="5.8" ry="17.5"/>
	
		<ellipse transform="matrix(0.6399 -0.7685 0.7685 0.6399 -216.5467 310.362)" fill="#37FFFF" cx="222.9" cy="386.2" rx="5.8" ry="17.5"/>
	
		<ellipse transform="matrix(0.6399 -0.7685 0.7685 0.6399 -208.7507 279.9988)" fill="#37FFFF" cx="194.4" cy="362.7" rx="5.8" ry="17.5"/>
	
		<ellipse transform="matrix(0.6399 -0.7685 0.7685 0.6399 -197.3651 347.296)" fill="#37FFFF" cx="271.9" cy="384.2" rx="5.8" ry="17.5"/>
	
		<ellipse transform="matrix(0.6399 -0.7685 0.7685 0.6399 -189.0049 317.1371)" fill="#37FFFF" cx="243.9" cy="360.2" rx="5.8" ry="17.5"/>
	
		<ellipse transform="matrix(0.6399 -0.7685 0.7685 0.6399 -205.7254 377.455)" fill="#37FFFF" cx="299.9" cy="408.2" rx="5.8" ry="17.5"/>
	
		<ellipse transform="matrix(0.6399 -0.7685 0.7685 0.6399 -225.1002 445.1085)" fill="#37FFFF" cx="362.4" cy="462.7" rx="5.8" ry="17.5"/>
	
		<ellipse transform="matrix(0.6399 -0.7685 0.7685 0.6399 -216.74 414.9495)" fill="#37FFFF" cx="334.4" cy="438.7" rx="5.8" ry="17.5"/>
	
		<ellipse transform="matrix(0.6399 -0.7685 0.7685 0.6399 -233.4604 475.2675)" fill="#37FFFF" cx="390.4" cy="486.7" rx="5.8" ry="17.5"/>
	
		<ellipse transform="matrix(0.6399 -0.7685 0.7685 0.6399 -175.0336 349.9522)" fill="#37FFFF" cx="285.9" cy="361.7" rx="5.8" ry="17.5"/>
	
		<ellipse transform="matrix(0.6399 -0.7685 0.7685 0.6399 -166.6734 319.7933)" fill="#37FFFF" cx="257.9" cy="337.7" rx="5.8" ry="17.5"/>
	
		<ellipse transform="matrix(0.6399 -0.7685 0.7685 0.6399 -183.3939 380.1112)" fill="#37FFFF" cx="313.9" cy="385.7" rx="5.8" ry="17.5"/>
	
		<ellipse transform="matrix(0.6399 -0.7685 0.7685 0.6399 -152.0534 354.623)" fill="#37FFFF" cx="302.4" cy="339.6" rx="5.8" ry="17.5"/>
	
		<ellipse transform="matrix(0.6399 -0.7685 0.7685 0.6399 -143.6931 324.4641)" fill="#37FFFF" cx="274.4" cy="315.6" rx="5.8" ry="17.5"/>
	
		<ellipse transform="matrix(0.6399 -0.7685 0.7685 0.6399 -160.4136 384.782)" fill="#37FFFF" cx="330.4" cy="363.6" rx="5.8" ry="17.5"/>
	
		<ellipse transform="matrix(0.6399 -0.7685 0.7685 0.6399 -130.5144 358.5879)" fill="#37FFFF" cx="317.4" cy="318.6" rx="5.8" ry="17.5"/>
	
		<ellipse transform="matrix(0.6399 -0.7685 0.7685 0.6399 -122.1542 328.4289)" fill="#37FFFF" cx="289.4" cy="294.6" rx="5.8" ry="17.5"/>
	
		<ellipse transform="matrix(0.6399 -0.7685 0.7685 0.6399 -138.8747 388.7468)" fill="#37FFFF" cx="345.4" cy="342.6" rx="5.8" ry="17.5"/>
	
		<ellipse transform="matrix(0.6399 -0.7685 0.7685 0.6399 -194.1207 421.2197)" fill="#37FFFF" cx="352.4" cy="417.7" rx="5.8" ry="17.5"/>
	
		<ellipse transform="matrix(0.6399 -0.7685 0.7685 0.6399 -202.481 451.3787)" fill="#37FFFF" cx="380.4" cy="441.7" rx="5.8" ry="17.5"/>
	
		<ellipse transform="matrix(0.6399 -0.7685 0.7685 0.6399 -171.1405 425.8905)" fill="#37FFFF" cx="368.9" cy="395.6" rx="5.8" ry="17.5"/>
	
		<ellipse transform="matrix(0.6399 -0.7685 0.7685 0.6399 -179.5007 456.0495)" fill="#37FFFF" cx="396.9" cy="419.6" rx="5.8" ry="17.5"/>
	
		<ellipse transform="matrix(0.6399 -0.7685 0.7685 0.6399 -149.6015 429.8553)" fill="#37FFFF" cx="383.9" cy="374.6" rx="5.8" ry="17.5"/>
	
		<ellipse transform="matrix(0.6399 -0.7685 0.7685 0.6399 -157.9618 460.0143)" fill="#37FFFF" cx="411.9" cy="398.6" rx="5.8" ry="17.5"/>
	
		<ellipse transform="matrix(0.6399 -0.7685 0.7685 0.6399 -126.9341 434.2285)" fill="#37FFFF" cx="399.9" cy="352.6" rx="5.8" ry="17.5"/>
	
		<ellipse transform="matrix(0.6399 -0.7685 0.7685 0.6399 -135.2943 464.3875)" fill="#37FFFF" cx="427.9" cy="376.6" rx="5.8" ry="17.5"/>
	
		<ellipse transform="matrix(0.6399 -0.7685 0.7685 0.6399 -93.9779 444.5581)" fill="#37FFFF" cx="427.4" cy="322.6" rx="5.8" ry="17.5"/>
	
		<ellipse transform="matrix(0.6399 -0.7685 0.7685 0.6399 -102.3381 474.7171)" fill="#37FFFF" cx="455.4" cy="346.6" rx="5.8" ry="17.5"/>
	
		<ellipse transform="matrix(0.6399 -0.7685 0.7685 0.6399 -71.3104 448.9313)" fill="#37FFFF" cx="443.4" cy="300.6" rx="5.8" ry="17.5"/>
	
		<ellipse transform="matrix(0.6399 -0.7685 0.7685 0.6399 -79.6706 479.0903)" fill="#37FFFF" cx="471.4" cy="324.6" rx="5.8" ry="17.5"/>
	
		<ellipse transform="matrix(0.6399 -0.7685 0.7685 0.6399 -50.6123 456.1017)" fill="#37FFFF" cx="461.4" cy="282.1" rx="5.8" ry="17.5"/>
	
		<ellipse transform="matrix(0.6399 -0.7685 0.7685 0.6399 -58.9725 486.2607)" fill="#37FFFF" cx="489.4" cy="306.1" rx="5.8" ry="17.5"/>
	
		<ellipse transform="matrix(0.6399 -0.7685 0.7685 0.6399 -66.5811 554.0237)" fill="#37FFFF" cx="557.9" cy="348.1" rx="5.8" ry="17.5"/>
	
		<ellipse transform="matrix(0.6399 -0.7685 0.7685 0.6399 -80.4355 546.458)" fill="#37FFFF" cx="542.9" cy="359.1" rx="5.8" ry="17.5"/>
	
		<ellipse transform="matrix(0.6399 -0.7685 0.7685 0.6399 -94.5665 542.302)" fill="#37FFFF" cx="531.4" cy="372.1" rx="5.8" ry="17.5"/>
	
		<ellipse transform="matrix(0.6399 -0.7685 0.7685 0.6399 -105.4306 529.1176)" fill="#37FFFF" cx="511.9" cy="377.1" rx="5.8" ry="17.5"/>
	
		<ellipse transform="matrix(0.2521 -0.9677 0.9677 0.2521 21.7942 883.3099)" fill="#37FFFF" cx="582.4" cy="427.6" rx="5.8" ry="17.5"/>
	
		<ellipse transform="matrix(0.2521 -0.9677 0.9677 0.2521 5.944 845.844)" fill="#37FFFF" cx="550.2" cy="419.1" rx="5.8" ry="17.5"/>
	
		<ellipse transform="matrix(0.6399 -0.7685 0.7685 0.6399 -155.2686 525.7615)" fill="#37FFFF" cx="483.4" cy="428.6" rx="5.8" ry="17.5"/>
	
		<ellipse transform="matrix(0.6399 -0.7685 0.7685 0.6399 -135.2907 531.3951)" fill="#37FFFF" cx="499.4" cy="410.1" rx="5.8" ry="17.5"/>
	
		<ellipse transform="matrix(0.6399 -0.7685 0.7685 0.6399 -113.2502 366.4302)" fill="#37FFFF" cx="334.4" cy="304.1" rx="5.8" ry="17.5"/>
	
		<ellipse transform="matrix(0.6399 -0.7685 0.7685 0.6399 -121.6105 396.5892)" fill="#37FFFF" cx="362.4" cy="328.1" rx="5.8" ry="17.5"/>
	
		<ellipse transform="matrix(0.6399 -0.7685 0.7685 0.6399 -254.0938 435.8654)" fill="#37FFFF" cx="338" cy="489.1" rx="5.8" ry="17.5"/>
	
		<ellipse transform="matrix(0.6399 -0.7685 0.7685 0.6399 -262.9664 466.2644)" fill="#37FFFF" cx="366" cy="513.7" rx="5.8" ry="17.5"/>
	
		<ellipse transform="matrix(0.6399 -0.7685 0.7685 0.6399 -271.8389 496.6634)" fill="#37FFFF" cx="394" cy="538.4" rx="5.8" ry="17.5"/>
	
		<ellipse transform="matrix(0.5967 -0.8025 0.8025 0.5967 -195.7357 427.8648)" fill="#37FFFF" cx="327.8" cy="408.7" rx="17.5" ry="5.8"/>
	
		<ellipse transform="matrix(0.5967 -0.8025 0.8025 0.5967 -163.634 434.9577)" fill="#37FFFF" cx="350.9" cy="380.3" rx="17.5" ry="5.8"/>
	
		<ellipse transform="matrix(0.5967 -0.8025 0.8025 0.5967 -131.5323 442.0507)" fill="#37FFFF" cx="374" cy="351.9" rx="17.5" ry="5.8"/>
	
		<ellipse transform="matrix(0.5967 -0.8025 0.8025 0.5967 -99.4306 449.1436)" fill="#37FFFF" cx="397.1" cy="323.5" rx="17.5" ry="5.8"/>
	
		<ellipse transform="matrix(0.5967 -0.8025 0.8025 0.5967 -66.9268 456.0678)" fill="#37FFFF" cx="420.3" cy="294.6" rx="17.5" ry="5.8"/>
	
		<ellipse transform="matrix(0.5967 -0.8025 0.8025 0.5967 -34.8251 463.1608)" fill="#37FFFF" cx="443.4" cy="266.2" rx="17.5" ry="5.8"/>
	
		<ellipse transform="matrix(0.6419 -0.7668 0.7668 0.6419 -246.4884 539.8044)" fill="#37FFFF" cx="454.7" cy="533.8" rx="17.5" ry="5.8"/>
	
		<ellipse transform="matrix(0.5499 -0.8353 0.8353 0.5499 -207.9149 625.1783)" fill="#37FFFF" cx="476.1" cy="505.5" rx="17.5" ry="5.8"/>
	
		<ellipse transform="matrix(0.9266 -0.376 0.376 0.9266 -144.8 224.3557)" fill="#37FFFF" cx="502.4" cy="483.2" rx="17.5" ry="5.8"/>
	
		<ellipse transform="matrix(0.6058 -0.7956 0.7956 0.6058 -159.4102 603.8911)" fill="#37FFFF" cx="529.7" cy="462.8" rx="17.5" ry="5.8"/>
	
		<ellipse transform="matrix(0.8188 -0.574 0.574 0.8188 -166.9984 371.4458)" fill="#37FFFF" cx="505" cy="450.3" rx="17.5" ry="5.8"/>
	
		<ellipse transform="matrix(0.3388 -0.9408 0.9408 0.3388 -50.5045 774.7177)" fill="#37FFFF" cx="526" cy="423.3" rx="17.5" ry="5.8"/>
	
		<ellipse transform="matrix(0.5752 -0.818 0.818 0.5752 -89.4277 610.5668)" fill="#37FFFF" cx="543.2" cy="391.4" rx="17.5" ry="5.8"/>
	
		<ellipse transform="matrix(0.6484 -0.7613 0.7613 0.6484 -77.4685 559.0355)" fill="#37FFFF" cx="566.5" cy="363.4" rx="17.5" ry="5.8"/>
	
		<ellipse transform="matrix(0.642 -0.7667 0.7667 0.642 -156.5965 503.0881)" fill="#37FFFF" cx="460.4" cy="419.2" rx="17.5" ry="5.8"/>
	
		<ellipse transform="matrix(0.642 -0.7667 0.7667 0.642 -126.7416 509.6929)" fill="#37FFFF" cx="482.4" cy="390.6" rx="17.5" ry="5.8"/>
	
		<ellipse transform="matrix(0.7547 -0.656 0.656 0.7547 -115.1513 422.4481)" fill="#37FFFF" cx="507.4" cy="365.2" rx="17.5" ry="5.8"/>
	
		<ellipse transform="matrix(0.8196 -0.573 0.573 0.8196 -99.868 368.6375)" fill="#37FFFF" cx="535.4" cy="342.9" rx="17.5" ry="5.8"/>
	
		<ellipse transform="matrix(0.8196 -0.573 0.573 0.8196 -85.202 400.5462)" fill="#37FFFF" cx="593.4" cy="335.6" rx="17.5" ry="5.8"/>
</g>
</svg>
