<?xml version="1.0" encoding="utf-8"?>
<!-- Generator: Adobe Illustrator 22.1.0, SVG Export Plug-In . SVG Version: 6.00 Build 0)  -->
<svg version="1.1" id="Layer_1" xmlns="http://www.w3.org/2000/svg" xmlns:xlink="http://www.w3.org/1999/xlink" x="0px" y="0px"
	 width="1030px" height="768px" viewBox="0 0 1030 768" enable-background="new 0 0 1030 768" xml:space="preserve">
<ellipse transform="matrix(0.991 -0.1339 0.1339 0.991 -65.5067 88.1079)" fill="#FFFF50" cx="622.1" cy="530.9" rx="5.8" ry="17.5"/>
<ellipse transform="matrix(0.7071 -0.7071 0.7071 0.7071 -163.7868 567.0359)" fill="#FFFF50" cx="602.6" cy="481.2" rx="5.8" ry="17.5"/>
<ellipse transform="matrix(0.9722 -0.234 0.234 0.9722 -90.044 148.7449)" fill="#FFFF50" cx="581.9" cy="453.9" rx="5.8" ry="17.5"/>
<ellipse transform="matrix(0.9994 -3.531514e-02 3.531514e-02 0.9994 -16.9707 20.986)" fill="#FFFF50" cx="585.6" cy="490.9" rx="5.8" ry="17.5"/>
<ellipse transform="matrix(0.9638 -0.2664 0.2664 0.9638 -118.814 176.7378)" fill="#FFFF50" cx="591.9" cy="526.2" rx="5.8" ry="17.5"/>
<ellipse transform="matrix(0.9722 -0.234 0.234 0.9722 -81.9189 146.0548)" fill="#FFFF50" cx="574.6" cy="418.3" rx="5.8" ry="17.5"/>
<ellipse fill="#FFFF50" cx="549.6" cy="396.2" rx="17.5" ry="5.8"/>
<ellipse transform="matrix(0.5 -0.866 0.866 0.5 -96.9676 655.1973)" fill="#FFFF50" cx="518.9" cy="411.6" rx="17.5" ry="5.8"/>
<ellipse transform="matrix(0.9788 -0.2049 0.2049 0.9788 -81.0491 114.2004)" fill="#FFFF50" cx="511" cy="448.5" rx="5.8" ry="17.5"/>
<ellipse transform="matrix(0.9623 -0.272 0.272 0.9623 -112.0733 160.0004)" fill="#FFFF50" cx="521" cy="484.2" rx="5.8" ry="17.5"/>
<ellipse transform="matrix(0.9623 -0.272 0.272 0.9623 -121.23 164.27)" fill="#FFFF50" cx="531.8" cy="519.4" rx="5.8" ry="17.5"/>
<ellipse transform="matrix(0.9623 -0.272 0.272 0.9623 -130.3867 168.5397)" fill="#FFFF50" cx="542.7" cy="554.5" rx="5.8" ry="17.5"/>
<ellipse transform="matrix(0.9623 -0.272 0.272 0.9623 -139.5434 172.8093)" fill="#FFFF50" cx="553.5" cy="589.7" rx="5.8" ry="17.5"/>
<ellipse transform="matrix(0.7071 -0.7071 0.7071 0.7071 -157.8759 468.7122)" fill="#FFFF50" cx="486.8" cy="424.9" rx="5.8" ry="17.5"/>
<ellipse transform="matrix(0.649 -0.7608 0.7608 0.649 -160.0341 500.9316)" fill="#FFFF50" cx="462.9" cy="423.9" rx="17.5" ry="5.8"/>
<ellipse transform="matrix(0.7702 -0.6378 0.6378 0.7702 -178.444 399.8837)" fill="#FFFF50" cx="465.7" cy="447.6" rx="5.8" ry="17.5"/>
<ellipse transform="matrix(0.7702 -0.6378 0.6378 0.7702 -190.634 422.05)" fill="#FFFF50" cx="490.4" cy="475.6" rx="5.8" ry="17.5"/>
<ellipse transform="matrix(0.7702 -0.6378 0.6378 0.7702 -202.824 444.2163)" fill="#FFFF50" cx="515.1" cy="503.6" rx="5.8" ry="17.5"/>
<ellipse transform="matrix(0.7702 -0.6378 0.6378 0.7702 -238.2772 468.9451)" fill="#FFFF50" cx="531.6" cy="565.1" rx="5.8" ry="17.5"/>
<ellipse transform="matrix(0.7702 -0.6378 0.6378 0.7702 -226.8847 447.9349)" fill="#FFFF50" cx="508.2" cy="538.8" rx="5.8" ry="17.5"/>
<ellipse transform="matrix(0.7702 -0.6378 0.6378 0.7702 -215.4923 426.9248)" fill="#FFFF50" cx="484.7" cy="512.5" rx="5.8" ry="17.5"/>
<ellipse transform="matrix(0.7702 -0.6378 0.6378 0.7702 -204.0998 405.9146)" fill="#FFFF50" cx="461.3" cy="486.2" rx="5.8" ry="17.5"/>
<ellipse transform="matrix(0.7702 -0.6378 0.6378 0.7702 -192.7074 384.9045)" fill="#FFFF50" cx="437.8" cy="459.9" rx="5.8" ry="17.5"/>
<ellipse transform="matrix(0.7702 -0.6378 0.6378 0.7702 -212.9166 376.8133)" fill="#FFFF50" cx="416.5" cy="483.9" rx="5.8" ry="17.5"/>
<ellipse transform="matrix(0.6044 -0.7967 0.7967 0.6044 -203.2154 512.7742)" fill="#FFFF50" cx="414.7" cy="461" rx="17.5" ry="5.8"/>
<ellipse transform="matrix(0.7702 -0.6378 0.6378 0.7702 -225.8382 398.2824)" fill="#FFFF50" cx="439.8" cy="512.6" rx="5.8" ry="17.5"/>
<ellipse transform="matrix(0.7702 -0.6378 0.6378 0.7702 -238.7597 419.7515)" fill="#FFFF50" cx="463.1" cy="541.2" rx="5.8" ry="17.5"/>
<ellipse transform="matrix(0.7702 -0.6378 0.6378 0.7702 -251.6813 441.2207)" fill="#FFFF50" cx="486.5" cy="569.9" rx="5.8" ry="17.5"/>
<ellipse transform="matrix(0.7702 -0.6378 0.6378 0.7702 -264.6029 462.6898)" fill="#FFFF50" cx="509.8" cy="598.6" rx="5.8" ry="17.5"/>
<ellipse transform="matrix(0.9859 -0.1676 0.1676 0.9859 -92.8511 104.6655)" fill="#FFFF50" cx="573.8" cy="602.6" rx="17.5" ry="5.8"/>
<ellipse transform="matrix(0.9125 -0.409 0.409 0.9125 -188.3724 300.2411)" fill="#FFFF50" cx="607.8" cy="590.6" rx="17.5" ry="5.8"/>
<ellipse transform="matrix(0.866 -0.5 0.5 0.866 -201.0575 396.6214)" fill="#FFFF50" cx="639.6" cy="573.5" rx="17.5" ry="5.8"/>
<ellipse transform="matrix(0.866 -0.5 0.5 0.866 -186.9489 409.2753)" fill="#FFFF50" cx="670.2" cy="553.5" rx="17.5" ry="5.8"/>
<ellipse transform="matrix(0.9358 -0.3525 0.3525 0.9358 -90.6623 236.8894)" fill="#FFFF50" cx="605.1" cy="367.4" rx="5.8" ry="17.5"/>
<ellipse transform="matrix(0.6285 -0.7778 0.7778 0.6285 -48.7191 609.4797)" fill="#FFFF50" cx="613.7" cy="355.7" rx="5.8" ry="17.5"/>
<ellipse transform="matrix(0.6285 -0.7778 0.7778 0.6285 -56.1954 639.159)" fill="#FFFF50" cx="641" cy="378.4" rx="5.8" ry="17.5"/>
<ellipse transform="matrix(0.6285 -0.7778 0.7778 0.6285 -40.682 578.5519)" fill="#FFFF50" cx="585.3" cy="331.9" rx="5.8" ry="17.5"/>
<ellipse transform="matrix(0.8921 -0.4518 0.4518 0.8921 -89.782 286.2726)" fill="#FFFF50" cx="554.6" cy="331.1" rx="17.5" ry="5.8"/>
<ellipse transform="matrix(0.8921 -0.4518 0.4518 0.8921 -100.912 272.9208)" fill="#FFFF50" cx="521" cy="347.8" rx="17.5" ry="5.8"/>
<ellipse transform="matrix(0.9318 -0.363 0.363 0.9318 -97.3699 201.5406)" fill="#FFFF50" cx="487.6" cy="359.8" rx="17.5" ry="5.8"/>
<ellipse transform="matrix(0.8241 -0.5665 0.5665 0.8241 -133.8521 325.3581)" fill="#FFFF50" cx="456.9" cy="378.2" rx="17.5" ry="5.8"/>
<ellipse transform="matrix(0.8241 -0.5665 0.5665 0.8241 -151.9964 313.6014)" fill="#FFFF50" cx="428.9" cy="401.5" rx="17.5" ry="5.8"/>
<ellipse transform="matrix(0.8022 -0.597 0.597 0.8022 -162.1956 345.3806)" fill="#FFFF50" cx="440.2" cy="417.5" rx="5.8" ry="17.5"/>
<ellipse transform="matrix(0.8022 -0.597 0.597 0.8022 -131.3453 367.8451)" fill="#FFFF50" cx="489.6" cy="382.2" rx="5.8" ry="17.5"/>
<ellipse transform="matrix(0.9863 -0.1648 0.1648 0.9863 -61.7288 88.2851)" fill="#FFFF50" cx="501.2" cy="416.2" rx="5.8" ry="17.5"/>
<ellipse transform="matrix(0.9684 -0.2496 0.2496 0.9684 -81.3305 176.685)" fill="#FFFF50" cx="656.1" cy="409.1" rx="5.8" ry="17.5"/>
<ellipse transform="matrix(0.9684 -0.2496 0.2496 0.9684 -89.8779 180.1231)" fill="#FFFF50" cx="665.4" cy="444.5" rx="5.8" ry="17.5"/>
<ellipse transform="matrix(0.9684 -0.2496 0.2496 0.9684 -98.4252 183.5612)" fill="#FFFF50" cx="674.7" cy="479.9" rx="5.8" ry="17.5"/>
<ellipse transform="matrix(0.9214 -0.3886 0.3886 0.9214 -138.2363 309.0572)" fill="#FFFF50" cx="695" cy="496.3" rx="17.5" ry="5.8"/>
<ellipse transform="matrix(0.9535 -0.3012 0.3012 0.9535 -108.7431 232.7574)" fill="#FFFF50" cx="700.3" cy="469" rx="5.8" ry="17.5"/>
<ellipse transform="matrix(0.9535 -0.3012 0.3012 0.9535 -97.9511 227.7502)" fill="#FFFF50" cx="689.5" cy="431.5" rx="5.8" ry="17.5"/>
<ellipse transform="matrix(0.9535 -0.3012 0.3012 0.9535 -87.1591 222.743)" fill="#FFFF50" cx="678.6" cy="394" rx="5.8" ry="17.5"/>
<ellipse transform="matrix(0.9358 -0.3525 0.3525 0.9358 -101.7515 243.1147)" fill="#FFFF50" cx="616.7" cy="401" rx="5.8" ry="17.5"/>
<ellipse transform="matrix(0.9358 -0.3525 0.3525 0.9358 -112.8408 249.3401)" fill="#FFFF50" cx="628.2" cy="434.5" rx="5.8" ry="17.5"/>
<ellipse transform="matrix(0.9358 -0.3525 0.3525 0.9358 -123.9301 255.5654)" fill="#FFFF50" cx="639.8" cy="468.1" rx="5.8" ry="17.5"/>
<ellipse transform="matrix(0.9358 -0.3525 0.3525 0.9358 -135.0193 261.7908)" fill="#FFFF50" cx="651.3" cy="501.6" rx="5.8" ry="17.5"/>
<ellipse transform="matrix(0.9358 -0.3525 0.3525 0.9358 -146.1086 268.0161)" fill="#FFFF50" cx="662.9" cy="535.2" rx="5.8" ry="17.5"/>
<ellipse transform="matrix(0.866 -0.5 0.5 0.866 -172.8404 421.9291)" fill="#FFFF50" cx="700.9" cy="533.5" rx="17.5" ry="5.8"/>
<ellipse transform="matrix(0.866 -0.5 0.5 0.866 -158.7318 434.5829)" fill="#FFFF50" cx="731.6" cy="513.5" rx="17.5" ry="5.8"/>
<ellipse transform="matrix(0.2571 -0.9664 0.9664 0.2571 -5.7559 832.9957)" fill="#FFFF50" cx="538.9" cy="420.2" rx="17.5" ry="5.8"/>
<ellipse transform="matrix(0.9741 -0.2262 0.2262 0.9741 -89.0737 133.8362)" fill="#FFFF50" cx="539.4" cy="455.6" rx="5.8" ry="17.5"/>
<ellipse transform="matrix(0.5724 -0.82 0.82 0.5724 -154.2994 665.4538)" fill="#FFFF50" cx="560.9" cy="480.7" rx="5.8" ry="17.5"/>
<ellipse transform="matrix(0.9962 -8.653741e-02 8.653741e-02 0.9962 -41.4354 50.8279)" fill="#FFFF50" cx="565.5" cy="503.3" rx="5.8" ry="17.5"/>
<ellipse transform="matrix(0.9609 -0.277 0.277 0.9609 -126.7022 179.6326)" fill="#FFFF50" cx="572.5" cy="538.3" rx="5.8" ry="17.5"/>
<ellipse transform="matrix(0.3132 -0.9497 0.9497 0.3132 -129.185 952.6906)" fill="#FFFF50" cx="594.1" cy="565.7" rx="5.8" ry="17.5"/>
<ellipse transform="matrix(0.2411 -0.9705 0.9705 0.2411 -65.0918 1022.7527)" fill="#FFFF50" cx="621.4" cy="553" rx="17.5" ry="5.8"/>
<ellipse transform="matrix(0.991 -0.1339 0.1339 0.991 -60.6538 87.3361)" fill="#FFFF50" cx="618.8" cy="494.5" rx="5.8" ry="17.5"/>
</svg>
