<?xml version="1.0" encoding="utf-8"?>
<!-- Generator: Adobe Illustrator 22.1.0, SVG Export Plug-In . SVG Version: 6.00 Build 0)  -->
<svg version="1.1" id="Layer_1" xmlns="http://www.w3.org/2000/svg" xmlns:xlink="http://www.w3.org/1999/xlink" x="0px" y="0px"
	 width="1024px" height="764px" viewBox="0 0 1024 764" enable-background="new 0 0 1024 764" xml:space="preserve">
<ellipse transform="matrix(0.3003 -0.9538 0.9538 0.3003 -69.2155 858.6814)" fill="#34FF33" cx="550.7" cy="476.5" rx="17.5" ry="5.8"/>
<ellipse transform="matrix(0.3003 -0.9538 0.9538 0.3003 -112.4856 873.4747)" fill="#34FF33" cx="539.1" cy="513.4" rx="17.5" ry="5.8"/>
<ellipse transform="matrix(0.7646 -0.6445 0.6445 0.7646 -190.4051 430.2824)" fill="#34FF33" cx="493.8" cy="475.8" rx="5.8" ry="17.5"/>
<ellipse transform="matrix(0.7646 -0.6445 0.6445 0.7646 -203.5535 453.3196)" fill="#34FF33" cx="518.8" cy="505.3" rx="5.8" ry="17.5"/>
<ellipse transform="matrix(0.7646 -0.6445 0.6445 0.7646 -164.0498 385.1041)" fill="#34FF33" cx="445.1" cy="417.1" rx="5.8" ry="17.5"/>
<ellipse transform="matrix(0.7646 -0.6445 0.6445 0.7646 -177.1982 408.1413)" fill="#34FF33" cx="470.1" cy="446.6" rx="5.8" ry="17.5"/>
<ellipse transform="matrix(0.7646 -0.6445 0.6445 0.7646 -137.6946 339.9257)" fill="#34FF33" cx="396.5" cy="358.5" rx="5.8" ry="17.5"/>
<ellipse transform="matrix(0.7646 -0.6445 0.6445 0.7646 -150.843 362.9629)" fill="#34FF33" cx="421.4" cy="388" rx="5.8" ry="17.5"/>
<ellipse transform="matrix(0.7646 -0.6445 0.6445 0.7646 -207.5767 407.8153)" fill="#34FF33" cx="454.5" cy="488.1" rx="5.8" ry="17.5"/>
<ellipse transform="matrix(0.7646 -0.6445 0.6445 0.7646 -222.7085 430.3878)" fill="#34FF33" cx="477.8" cy="520.1" rx="5.8" ry="17.5"/>
<ellipse transform="matrix(0.7646 -0.6445 0.6445 0.7646 -177.8907 302.334)" fill="#34FF33" cx="324.9" cy="394.7" rx="5.8" ry="17.5"/>
<ellipse transform="matrix(0.7646 -0.6445 0.6445 0.7646 -189.4727 324.6562)" fill="#34FF33" cx="349.7" cy="421.7" rx="5.8" ry="17.5"/>
<ellipse transform="matrix(0.7071 -0.7071 0.7071 0.7071 -184.5264 388.4786)" fill="#34FF33" cx="376.7" cy="417" rx="17.5" ry="5.8"/>
<ellipse transform="matrix(0.6318 -0.7752 0.7752 0.6318 -153.75 454.9744)" fill="#34FF33" cx="402" cy="389.3" rx="17.5" ry="5.8"/>
<ellipse transform="matrix(0.3691 -0.9294 0.9294 0.3691 -140.2837 706.7869)" fill="#34FF33" cx="450.5" cy="456.7" rx="17.5" ry="5.8"/>
<ellipse transform="matrix(0.7646 -0.6445 0.6445 0.7646 -109.9885 296.4455)" fill="#34FF33" cx="350.8" cy="298.8" rx="5.8" ry="17.5"/>
<ellipse transform="matrix(0.752 -0.6591 0.6591 0.752 -75.0144 274.943)" fill="#34FF33" cx="327.9" cy="237.2" rx="17.5" ry="5.8"/>
<ellipse transform="matrix(0.752 -0.6591 0.6591 0.752 -51.8136 287.2819)" fill="#34FF33" cx="355.9" cy="212.5" rx="17.5" ry="5.8"/>
<ellipse transform="matrix(0.752 -0.6591 0.6591 0.752 -30.0964 299.6772)" fill="#34FF33" cx="383.3" cy="189.8" rx="17.5" ry="5.8"/>
<ellipse transform="matrix(0.752 -0.6591 0.6591 0.752 -6.8391 313.4997)" fill="#34FF33" cx="413.3" cy="165.8" rx="17.5" ry="5.8"/>
<ellipse transform="matrix(0.8269 -0.5624 0.5624 0.8269 -51.2088 250.6145)" fill="#34FF33" cx="381.4" cy="208.5" rx="5.8" ry="17.5"/>
<ellipse transform="matrix(0.8269 -0.5624 0.5624 0.8269 -37.1068 236.4218)" fill="#34FF33" cx="365.4" cy="178.5" rx="5.8" ry="17.5"/>
<ellipse transform="matrix(0.8269 -0.5624 0.5624 0.8269 -23.933 219.4539)" fill="#34FF33" cx="344.5" cy="148.6" rx="5.8" ry="17.5"/>
<ellipse transform="matrix(0.5 -0.866 0.866 0.5 2.8569 467.6642)" fill="#34FF33" cx="406.4" cy="231.4" rx="5.8" ry="17.5"/>
<ellipse transform="matrix(0.4074 -0.9133 0.9133 0.4074 6.108 517.462)" fill="#34FF33" cx="401.8" cy="254" rx="17.5" ry="5.8"/>
<ellipse transform="matrix(0.7646 -0.6445 0.6445 0.7646 -124.4877 317.7845)" fill="#34FF33" cx="372.8" cy="329.3" rx="5.8" ry="17.5"/>
<ellipse transform="matrix(0.7646 -0.6445 0.6445 0.7646 -83.6333 251.2671)" fill="#34FF33" cx="302.1" cy="240.1" rx="5.8" ry="17.5"/>
<ellipse transform="matrix(0.7646 -0.6445 0.6445 0.7646 -96.7817 274.3043)" fill="#34FF33" cx="327.1" cy="269.6" rx="5.8" ry="17.5"/>
<ellipse transform="matrix(0.3003 -0.9538 0.9538 0.3003 -29.2961 844.8282)" fill="#34FF33" cx="561.2" cy="442.4" rx="17.5" ry="5.8"/>
<ellipse transform="matrix(0.3003 -0.9538 0.9538 0.3003 11.428 831.0524)" fill="#34FF33" cx="572.2" cy="407.7" rx="17.5" ry="5.8"/>
<ellipse transform="matrix(0.3003 -0.9538 0.9538 0.3003 52.0064 818.1817)" fill="#34FF33" cx="583.7" cy="373.6" rx="17.5" ry="5.8"/>
<ellipse transform="matrix(0.3003 -0.9538 0.9538 0.3003 93.9853 804.496)" fill="#34FF33" cx="595.4" cy="338.2" rx="17.5" ry="5.8"/>
<ellipse transform="matrix(0.3003 -0.9538 0.9538 0.3003 133.9048 790.6428)" fill="#34FF33" cx="605.9" cy="304" rx="17.5" ry="5.8"/>
<ellipse transform="matrix(0.3003 -0.9538 0.9538 0.3003 174.6289 776.8669)" fill="#34FF33" cx="616.8" cy="269.4" rx="17.5" ry="5.8"/>
<ellipse transform="matrix(0.3003 -0.9538 0.9538 0.3003 215.2073 763.9963)" fill="#34FF33" cx="628.4" cy="235.3" rx="17.5" ry="5.8"/>
<ellipse transform="matrix(0.1577 -0.9875 0.9875 0.1577 338.1849 797.1067)" fill="#34FF33" cx="636.4" cy="200.3" rx="17.5" ry="5.8"/>
<ellipse transform="matrix(0.2458 -0.9693 0.9693 0.2458 325.0797 747.4279)" fill="#34FF33" cx="642.9" cy="164.8" rx="17.5" ry="5.8"/>
<ellipse transform="matrix(0.3359 -0.9419 0.9419 0.3359 311.2804 701.5258)" fill="#34FF33" cx="653.1" cy="130" rx="17.5" ry="5.8"/>
<ellipse transform="matrix(0.9898 -0.1422 0.1422 0.9898 -41.3993 71.2464)" fill="#34FF33" cx="477.9" cy="325.4" rx="17.5" ry="5.8"/>
<ellipse transform="matrix(0.9898 -0.1422 0.1422 0.9898 -40.2878 76.2143)" fill="#34FF33" cx="513.3" cy="320.1" rx="17.5" ry="5.8"/>
<ellipse transform="matrix(0.9898 -0.1422 0.1422 0.9898 -39.1966 81.2774)" fill="#34FF33" cx="549.3" cy="315" rx="17.5" ry="5.8"/>
<ellipse transform="matrix(0.9898 -0.1422 0.1422 0.9898 -38.2118 86.3107)" fill="#34FF33" cx="585" cy="310.6" rx="17.5" ry="5.8"/>
<ellipse transform="matrix(0.9898 -0.1422 0.1422 0.9898 -36.0706 73.9127)" fill="#34FF33" cx="499.3" cy="289.4" rx="17.5" ry="5.8"/>
<ellipse transform="matrix(0.9898 -0.1422 0.1422 0.9898 -34.9794 78.9758)" fill="#34FF33" cx="535.3" cy="284.3" rx="17.5" ry="5.8"/>
<ellipse transform="matrix(0.9898 -0.1422 0.1422 0.9898 -33.9945 84.0091)" fill="#34FF33" cx="571" cy="279.9" rx="17.5" ry="5.8"/>
<ellipse transform="matrix(0.9898 -0.1422 0.1422 0.9898 -45.4744 69.6623)" fill="#34FF33" cx="464.8" cy="353.1" rx="17.5" ry="5.8"/>
<ellipse transform="matrix(0.9898 -0.1422 0.1422 0.9898 -44.3629 74.6302)" fill="#34FF33" cx="500.1" cy="347.8" rx="17.5" ry="5.8"/>
<ellipse transform="matrix(0.9898 -0.1422 0.1422 0.9898 -43.2717 79.6933)" fill="#34FF33" cx="536.1" cy="342.7" rx="17.5" ry="5.8"/>
<ellipse transform="matrix(0.9898 -0.1422 0.1422 0.9898 -42.2868 84.7266)" fill="#34FF33" cx="571.8" cy="338.3" rx="17.5" ry="5.8"/>
<ellipse transform="matrix(6.774508e-02 -0.9977 0.9977 6.774508e-02 157.0336 901.494)" fill="#34FF33" cx="560.9" cy="366.7" rx="5.8" ry="17.5"/>
<ellipse transform="matrix(6.774508e-02 -0.9977 0.9977 6.774508e-02 133.1338 917.7914)" fill="#34FF33" cx="557.7" cy="387.7" rx="5.8" ry="17.5"/>
<ellipse transform="matrix(6.774508e-02 -0.9977 0.9977 6.774508e-02 98.9487 928.5384)" fill="#34FF33" cx="546.3" cy="411.3" rx="5.8" ry="17.5"/>
<ellipse transform="matrix(0.4159 -0.9094 0.9094 0.4159 49.9126 516.558)" fill="#34FF33" cx="427.1" cy="219.4" rx="17.5" ry="5.8"/>
<ellipse transform="matrix(0.4159 -0.9094 0.9094 0.4159 87.938 510.9446)" fill="#34FF33" cx="441.7" cy="187" rx="17.5" ry="5.8"/>
<ellipse transform="matrix(0.6874 -0.7263 0.7263 0.6874 39.3977 389.5955)" fill="#34FF33" cx="472.3" cy="149" rx="17.5" ry="5.8"/>
<ellipse transform="matrix(0.6874 -0.7263 0.7263 0.6874 66.3614 399.5326)" fill="#34FF33" cx="497.3" cy="122.7" rx="17.5" ry="5.8"/>
<ellipse transform="matrix(0.6874 -0.7263 0.7263 0.6874 92.8693 409.8792)" fill="#34FF33" cx="522.6" cy="97.1" rx="17.5" ry="5.8"/>
<ellipse transform="matrix(0.6874 -0.7263 0.7263 0.6874 119.1251 420.6748)" fill="#34FF33" cx="548.2" cy="72" rx="17.5" ry="5.8"/>
<ellipse transform="matrix(0.6874 -0.7263 0.7263 0.6874 146.0888 430.6119)" fill="#34FF33" cx="573.3" cy="45.6" rx="17.5" ry="5.8"/>
<ellipse transform="matrix(0.5733 -0.8193 0.8193 0.5733 178.0396 491.2963)" fill="#34FF33" cx="560.7" cy="74.7" rx="5.8" ry="17.5"/>
<ellipse transform="matrix(0.5733 -0.8193 0.8193 0.5733 172.4564 523.9875)" fill="#34FF33" cx="589.3" cy="96.4" rx="5.8" ry="17.5"/>
<ellipse transform="matrix(0.5733 -0.8193 0.8193 0.5733 168.033 557.266)" fill="#34FF33" cx="619.1" cy="117.3" rx="5.8" ry="17.5"/>
<ellipse transform="matrix(0.3537 -0.9353 0.9353 0.3537 265.2826 675.8732)" fill="#34FF33" cx="621.7" cy="146" rx="17.5" ry="5.8"/>
<ellipse transform="matrix(0.8083 -0.5888 0.5888 0.8083 36.9421 379.3857)" fill="#34FF33" cx="601.1" cy="133" rx="17.5" ry="5.8"/>
<ellipse transform="matrix(0.9841 -0.1775 0.1775 0.9841 -16.8803 103.2468)" fill="#34FF33" cx="568.6" cy="146" rx="17.5" ry="5.8"/>
<ellipse transform="matrix(0.1983 -0.9801 0.9801 0.1983 285.3322 637.5649)" fill="#34FF33" cx="532.4" cy="144.4" rx="5.8" ry="17.5"/>
<ellipse transform="matrix(0.4876 -0.8731 0.8731 0.4876 -8.1151 716.9982)" fill="#34FF33" cx="606.8" cy="365.4" rx="5.8" ry="17.5"/>
<ellipse transform="matrix(0.4876 -0.8731 0.8731 0.4876 -8.092 753.4279)" fill="#34FF33" cx="637.8" cy="383.6" rx="5.8" ry="17.5"/>
<ellipse transform="matrix(0.5851 -0.811 0.811 0.5851 76.2961 626.8251)" fill="#34FF33" cx="650.7" cy="238.8" rx="5.8" ry="17.5"/>
<ellipse transform="matrix(0.5851 -0.811 0.811 0.5851 71.5644 659.018)" fill="#34FF33" cx="679.8" cy="259.6" rx="5.8" ry="17.5"/>
<ellipse transform="matrix(0.5851 -0.811 0.811 0.5851 66.4938 691.733)" fill="#34FF33" cx="709.3" cy="280.9" rx="5.8" ry="17.5"/>
<ellipse transform="matrix(0.5851 -0.811 0.811 0.5851 60.8568 724.0266)" fill="#34FF33" cx="738" cy="302.5" rx="5.8" ry="17.5"/>
<ellipse transform="matrix(0.5851 -0.811 0.811 0.5851 54.1418 756.8563)" fill="#34FF33" cx="766.7" cy="325.5" rx="5.8" ry="17.5"/>
<ellipse transform="matrix(0.5851 -0.811 0.811 0.5851 49.41 789.0492)" fill="#34FF33" cx="795.8" cy="346.2" rx="5.8" ry="17.5"/>
<ellipse transform="matrix(0.5851 -0.811 0.811 0.5851 44.3395 821.7642)" fill="#34FF33" cx="825.3" cy="367.5" rx="5.8" ry="17.5"/>
<ellipse transform="matrix(0.5851 -0.811 0.811 0.5851 99.5941 620.3626)" fill="#34FF33" cx="656.1" cy="212.8" rx="5.8" ry="17.5"/>
<ellipse transform="matrix(0.5851 -0.811 0.811 0.5851 94.8624 652.5555)" fill="#34FF33" cx="685.2" cy="233.6" rx="5.8" ry="17.5"/>
<ellipse transform="matrix(0.5851 -0.811 0.811 0.5851 89.7919 685.2705)" fill="#34FF33" cx="714.6" cy="254.9" rx="5.8" ry="17.5"/>
<ellipse transform="matrix(0.5851 -0.811 0.811 0.5851 84.1548 717.5641)" fill="#34FF33" cx="743.3" cy="276.5" rx="5.8" ry="17.5"/>
<ellipse transform="matrix(0.5851 -0.811 0.811 0.5851 77.4398 750.3938)" fill="#34FF33" cx="772.1" cy="299.5" rx="5.8" ry="17.5"/>
<ellipse transform="matrix(0.5851 -0.811 0.811 0.5851 72.7081 782.5867)" fill="#34FF33" cx="801.2" cy="320.2" rx="5.8" ry="17.5"/>
<ellipse transform="matrix(0.5851 -0.811 0.811 0.5851 67.6375 815.3017)" fill="#34FF33" cx="830.6" cy="341.5" rx="5.8" ry="17.5"/>
<ellipse transform="matrix(0.5851 -0.811 0.811 0.5851 61.6948 848.6238)" fill="#34FF33" cx="860.2" cy="364" rx="5.8" ry="17.5"/>
<ellipse transform="matrix(0.2879 -0.9577 0.9577 0.2879 122.5238 446.5533)" fill="#34FF33" cx="361.5" cy="140.9" rx="5.8" ry="17.5"/>
<ellipse transform="matrix(0.7071 -0.7071 0.7071 0.7071 7.9363 270.2667)" fill="#34FF33" cx="330.2" cy="125.6" rx="5.8" ry="17.5"/>
<ellipse transform="matrix(0.9045 -0.4264 0.4264 0.9045 -10.8527 141.8767)" fill="#34FF33" cx="311.4" cy="95.2" rx="5.8" ry="17.5"/>
<ellipse transform="matrix(0.866 -0.5 0.5 0.866 7.7335 157.0256)" fill="#34FF33" cx="296.9" cy="64.1" rx="5.8" ry="17.5"/>
<ellipse transform="matrix(0.2879 -0.9577 0.9577 0.2879 138.7031 488.4606)" fill="#34FF33" cx="397.8" cy="151" rx="5.8" ry="17.5"/>
<ellipse transform="matrix(0.2879 -0.9577 0.9577 0.2879 153.3961 529.2656)" fill="#34FF33" cx="432.6" cy="161.5" rx="5.8" ry="17.5"/>
<ellipse transform="matrix(0.2879 -0.9577 0.9577 0.2879 167.1732 569.9415)" fill="#34FF33" cx="466.8" cy="172.6" rx="5.8" ry="17.5"/>
<ellipse transform="matrix(0.9976 -6.852383e-02 6.852383e-02 0.9976 -10.9997 34.7832)" fill="#34FF33" cx="501.5" cy="177.7" rx="17.5" ry="5.8"/>
<ellipse transform="matrix(0.9976 -6.852383e-02 6.852383e-02 0.9976 -10.7332 37.2177)" fill="#34FF33" cx="537.1" cy="175.1" rx="17.5" ry="5.8"/>
<ellipse transform="matrix(0.9976 -6.852383e-02 6.852383e-02 0.9976 -10.4815 39.6968)" fill="#34FF33" cx="573.4" cy="172.6" rx="17.5" ry="5.8"/>
<ellipse transform="matrix(0.9976 -6.852383e-02 6.852383e-02 0.9976 -10.2818 42.2365)" fill="#34FF33" cx="610.5" cy="171" rx="17.5" ry="5.8"/>
<ellipse transform="matrix(0.6107 -0.7919 0.7919 0.6107 -7.4847 617.8612)" fill="#34FF33" cx="624.7" cy="316.5" rx="5.8" ry="17.5"/>
<ellipse transform="matrix(0.6107 -0.7919 0.7919 0.6107 -13.5573 648.7888)" fill="#34FF33" cx="653.1" cy="338.2" rx="5.8" ry="17.5"/>
<ellipse transform="matrix(0.6107 -0.7919 0.7919 0.6107 -19.982 680.2059)" fill="#34FF33" cx="681.8" cy="360.4" rx="5.8" ry="17.5"/>
<ellipse transform="matrix(0.6107 -0.7919 0.7919 0.6107 -26.9352 711.189)" fill="#34FF33" cx="709.8" cy="383" rx="5.8" ry="17.5"/>
<ellipse transform="matrix(0.6107 -0.7919 0.7919 0.6107 24.8973 614.3959)" fill="#34FF33" cx="637.3" cy="281.9" rx="5.8" ry="17.5"/>
<ellipse transform="matrix(0.6107 -0.7919 0.7919 0.6107 18.8247 645.3235)" fill="#34FF33" cx="665.7" cy="303.5" rx="5.8" ry="17.5"/>
<ellipse transform="matrix(0.6107 -0.7919 0.7919 0.6107 10.2059 686.5122)" fill="#34FF33" cx="703.3" cy="332.9" rx="5.8" ry="17.5"/>
<ellipse transform="matrix(0.6107 -0.7919 0.7919 0.6107 4.1333 717.4399)" fill="#34FF33" cx="731.7" cy="354.5" rx="5.8" ry="17.5"/>
<ellipse transform="matrix(0.6107 -0.7919 0.7919 0.6107 -2.6178 748.9783)" fill="#34FF33" cx="760.4" cy="377.2" rx="5.8" ry="17.5"/>
<ellipse transform="matrix(0.3615 -0.9324 0.9324 0.3615 124.9342 845.0872)" fill="#34FF33" cx="679.5" cy="331.3" rx="17.5" ry="5.8"/>
<ellipse transform="matrix(0.3985 -0.9172 0.9172 0.3985 53.46 834.7943)" fill="#34FF33" cx="663.2" cy="376.6" rx="17.5" ry="5.8"/>
<ellipse transform="matrix(0.3985 -0.9172 0.9172 0.3985 14.2563 843.0164)" fill="#34FF33" cx="649.8" cy="410.6" rx="17.5" ry="5.8"/>
<ellipse transform="matrix(0.3985 -0.9172 0.9172 0.3985 -24.9474 851.2384)" fill="#34FF33" cx="636.5" cy="444.6" rx="17.5" ry="5.8"/>
<ellipse transform="matrix(0.3985 -0.9172 0.9172 0.3985 -64.1511 859.4605)" fill="#34FF33" cx="623.2" cy="478.6" rx="17.5" ry="5.8"/>
<ellipse transform="matrix(0.3985 -0.9172 0.9172 0.3985 -103.3549 867.6826)" fill="#34FF33" cx="609.8" cy="512.6" rx="17.5" ry="5.8"/>
<ellipse transform="matrix(0.6107 -0.7919 0.7919 0.6107 -34.9562 742.6407)" fill="#34FF33" cx="737.8" cy="406.9" rx="5.8" ry="17.5"/>
<ellipse transform="matrix(0.6107 -0.7919 0.7919 0.6107 -41.0288 773.5684)" fill="#34FF33" cx="766.2" cy="428.5" rx="5.8" ry="17.5"/>
<ellipse transform="matrix(0.6107 -0.7919 0.7919 0.6107 -47.4535 804.9855)" fill="#34FF33" cx="795" cy="450.8" rx="5.8" ry="17.5"/>
<ellipse transform="matrix(0.2934 -0.956 0.956 0.2934 1.8513 864.3731)" fill="#34FF33" cx="585.7" cy="430.9" rx="5.8" ry="17.5"/>
<ellipse transform="matrix(0.6214 -0.7835 0.7835 0.6214 -120.8874 650.9142)" fill="#34FF33" cx="613" cy="450.5" rx="5.8" ry="17.5"/>
<ellipse transform="matrix(0.4283 -0.9036 0.9036 0.4283 -54.2148 861.6171)" fill="#34FF33" cx="653.8" cy="473.7" rx="5.8" ry="17.5"/>
<ellipse transform="matrix(0.9835 -0.1808 0.1808 0.9835 -79.182 130.391)" fill="#34FF33" cx="675.8" cy="499.7" rx="5.8" ry="17.5"/>
<ellipse transform="matrix(0.5466 -0.8374 0.8374 0.5466 36.6575 554.1659)" fill="#34FF33" cx="530.1" cy="243.2" rx="5.8" ry="17.5"/>
<ellipse transform="matrix(0.5466 -0.8374 0.8374 0.5466 33.7648 588.653)" fill="#34FF33" cx="560.5" cy="263.1" rx="5.8" ry="17.5"/>
<ellipse transform="matrix(0.5466 -0.8374 0.8374 0.5466 30.2506 622.7422)" fill="#34FF33" cx="590.2" cy="283.4" rx="5.8" ry="17.5"/>
<ellipse transform="matrix(0.5466 -0.8374 0.8374 0.5466 79.2146 545.1995)" fill="#34FF33" cx="543.1" cy="199.5" rx="5.8" ry="17.5"/>
<ellipse transform="matrix(0.3228 -0.9465 0.9465 0.3228 152.259 641.4707)" fill="#34FF33" cx="524.4" cy="214.3" rx="17.5" ry="5.8"/>
<ellipse transform="matrix(0.5466 -0.8374 0.8374 0.5466 76.3219 579.6866)" fill="#34FF33" cx="573.5" cy="219.4" rx="5.8" ry="17.5"/>
<ellipse transform="matrix(0.5466 -0.8374 0.8374 0.5466 72.8077 613.7758)" fill="#34FF33" cx="603.2" cy="239.7" rx="5.8" ry="17.5"/>
<ellipse transform="matrix(0.5851 -0.811 0.811 0.5851 129.6817 613.8373)" fill="#34FF33" cx="664.7" cy="180.2" rx="5.8" ry="17.5"/>
<ellipse transform="matrix(0.5851 -0.811 0.811 0.5851 124.95 646.0302)" fill="#34FF33" cx="693.8" cy="200.9" rx="5.8" ry="17.5"/>
<ellipse transform="matrix(0.5851 -0.811 0.811 0.5851 119.8794 678.7452)" fill="#34FF33" cx="723.3" cy="222.2" rx="5.8" ry="17.5"/>
<ellipse transform="matrix(0.5851 -0.811 0.811 0.5851 114.2423 711.0388)" fill="#34FF33" cx="752" cy="243.9" rx="5.8" ry="17.5"/>
<ellipse transform="matrix(0.5851 -0.811 0.811 0.5851 107.5273 743.8685)" fill="#34FF33" cx="780.7" cy="266.8" rx="5.8" ry="17.5"/>
<ellipse transform="matrix(0.5851 -0.811 0.811 0.5851 102.7956 776.0613)" fill="#34FF33" cx="809.8" cy="287.6" rx="5.8" ry="17.5"/>
<ellipse transform="matrix(0.5851 -0.811 0.811 0.5851 97.725 808.7764)" fill="#34FF33" cx="839.3" cy="308.9" rx="5.8" ry="17.5"/>
<ellipse transform="matrix(0.5851 -0.811 0.811 0.5851 91.7823 842.0985)" fill="#34FF33" cx="868.9" cy="331.4" rx="5.8" ry="17.5"/>
</svg>
