<?xml version="1.0" encoding="utf-8"?>
<!-- Generator: Adobe Illustrator 22.1.0, SVG Export Plug-In . SVG Version: 6.00 Build 0)  -->
<svg version="1.1" id="Layer_1" xmlns="http://www.w3.org/2000/svg" xmlns:xlink="http://www.w3.org/1999/xlink" x="0px" y="0px"
	 width="1280px" height="720px" viewBox="0 0 1280 720" enable-background="new 0 0 1280 720" xml:space="preserve">
<ellipse transform="matrix(0.9305 -0.3664 0.3664 0.9305 -131.5565 216.6637)" fill="#734EFF" cx="505" cy="454.9" rx="17.5" ry="5.8"/>
<ellipse transform="matrix(0.9305 -0.3664 0.3664 0.9305 -124.1284 228.0099)" fill="#734EFF" cx="538.6" cy="441" rx="17.5" ry="5.8"/>
<ellipse transform="matrix(0.9305 -0.3664 0.3664 0.9305 -116.4823 239.5046)" fill="#734EFF" cx="572.7" cy="426.6" rx="17.5" ry="5.8"/>
<ellipse transform="matrix(0.9458 -0.3249 0.3249 0.9458 -100.5051 175.8804)" fill="#734EFF" cx="476.4" cy="388.9" rx="17.5" ry="5.8"/>
<ellipse transform="matrix(0.9458 -0.3249 0.3249 0.9458 -94.6203 186.3199)" fill="#734EFF" cx="510.6" cy="376.5" rx="17.5" ry="5.8"/>
<ellipse transform="matrix(0.9458 -0.3249 0.3249 0.9458 -88.5488 196.8929)" fill="#734EFF" cx="545.3" cy="363.6" rx="17.5" ry="5.8"/>
<ellipse transform="matrix(0.9458 -0.3249 0.3249 0.9458 -82.8141 207.8246)" fill="#734EFF" cx="580.9" cy="351.9" rx="17.5" ry="5.8"/>
<ellipse transform="matrix(0.9458 -0.3249 0.3249 0.9458 -76.9292 218.264)" fill="#734EFF" cx="615.1" cy="339.5" rx="17.5" ry="5.8"/>
<ellipse transform="matrix(0.9458 -0.3249 0.3249 0.9458 -70.8578 228.8372)" fill="#734EFF" cx="649.8" cy="326.6" rx="17.5" ry="5.8"/>
<ellipse transform="matrix(0.9458 -0.3249 0.3249 0.9458 -65.1231 239.7689)" fill="#734EFF" cx="685.4" cy="314.9" rx="17.5" ry="5.8"/>
<ellipse transform="matrix(0.9458 -0.3249 0.3249 0.9458 -59.2383 250.2083)" fill="#734EFF" cx="719.6" cy="302.5" rx="17.5" ry="5.8"/>
<ellipse transform="matrix(0.9458 -0.3249 0.3249 0.9458 -53.1668 260.7814)" fill="#734EFF" cx="754.3" cy="289.6" rx="17.5" ry="5.8"/>
<ellipse transform="matrix(0.9458 -0.3249 0.3249 0.9458 -108.0804 178.1449)" fill="#734EFF" cx="479.4" cy="412.7" rx="17.5" ry="5.8"/>
<ellipse transform="matrix(0.9458 -0.3249 0.3249 0.9458 -102.1955 188.5843)" fill="#734EFF" cx="513.6" cy="400.3" rx="17.5" ry="5.8"/>
<ellipse transform="matrix(0.9458 -0.3249 0.3249 0.9458 -96.1084 199.1864)" fill="#734EFF" cx="548.4" cy="387.4" rx="17.5" ry="5.8"/>
<ellipse transform="matrix(0.9458 -0.3249 0.3249 0.9458 -90.3894 210.0892)" fill="#734EFF" cx="583.9" cy="375.7" rx="17.5" ry="5.8"/>
<ellipse transform="matrix(0.9458 -0.3249 0.3249 0.9458 -84.5045 220.5285)" fill="#734EFF" cx="618.1" cy="363.3" rx="17.5" ry="5.8"/>
<ellipse transform="matrix(0.9458 -0.3249 0.3249 0.9458 -78.4174 231.1307)" fill="#734EFF" cx="652.9" cy="350.4" rx="17.5" ry="5.8"/>
<ellipse transform="matrix(0.9458 -0.3249 0.3249 0.9458 -72.6984 242.0334)" fill="#734EFF" cx="688.4" cy="338.7" rx="17.5" ry="5.8"/>
<ellipse transform="matrix(0.9458 -0.3249 0.3249 0.9458 -66.8136 252.4728)" fill="#734EFF" cx="722.6" cy="326.3" rx="17.5" ry="5.8"/>
<ellipse transform="matrix(0.9458 -0.3249 0.3249 0.9458 -60.7264 263.0749)" fill="#734EFF" cx="757.4" cy="313.4" rx="17.5" ry="5.8"/>
<ellipse transform="matrix(0.9305 -0.3664 0.3664 0.9305 -109.7175 251.3562)" fill="#734EFF" cx="607.3" cy="414.7" rx="17.5" ry="5.8"/>
<ellipse transform="matrix(0.9305 -0.3664 0.3664 0.9305 -102.5663 263.1699)" fill="#734EFF" cx="642" cy="401.8" rx="17.5" ry="5.8"/>
<ellipse transform="matrix(0.9305 -0.3664 0.3664 0.9305 -94.5922 274.1832)" fill="#734EFF" cx="675" cy="386.3" rx="17.5" ry="5.8"/>
<ellipse transform="matrix(0.9305 -0.3664 0.3664 0.9305 -87.0982 285.6672)" fill="#734EFF" cx="709" cy="372.3" rx="17.5" ry="5.8"/>
<ellipse transform="matrix(0.9305 -0.3664 0.3664 0.9305 -79.6169 297.2976)" fill="#734EFF" cx="743.4" cy="358.4" rx="17.5" ry="5.8"/>
<ellipse transform="matrix(0.9305 -0.3664 0.3664 0.9305 -139.9201 221.9713)" fill="#734EFF" cx="514.8" cy="479.6" rx="17.5" ry="5.8"/>
<ellipse transform="matrix(0.9305 -0.3664 0.3664 0.9305 -132.297 232.7449)" fill="#734EFF" cx="547" cy="464.9" rx="17.5" ry="5.8"/>
<ellipse transform="matrix(0.9305 -0.3664 0.3664 0.9305 -124.7054 243.5384)" fill="#734EFF" cx="579.2" cy="450.3" rx="17.5" ry="5.8"/>
<ellipse transform="matrix(0.9305 -0.3664 0.3664 0.9305 -117.0822 254.3121)" fill="#734EFF" cx="611.4" cy="435.6" rx="17.5" ry="5.8"/>
<ellipse transform="matrix(0.9305 -0.3664 0.3664 0.9305 -109.4591 265.0857)" fill="#734EFF" cx="643.6" cy="420.9" rx="17.5" ry="5.8"/>
<ellipse transform="matrix(0.9305 -0.3664 0.3664 0.9305 -101.8359 275.8593)" fill="#734EFF" cx="675.8" cy="406.2" rx="17.5" ry="5.8"/>
<ellipse transform="matrix(0.9305 -0.3664 0.3664 0.9305 -94.5097 287.0688)" fill="#734EFF" cx="709" cy="392.5" rx="17.5" ry="5.8"/>
<ellipse transform="matrix(0.9305 -0.3664 0.3664 0.9305 -87.1454 298.6646)" fill="#734EFF" cx="743.3" cy="378.9" rx="17.5" ry="5.8"/>
<ellipse transform="matrix(0.9305 -0.3664 0.3664 0.9305 -146.9378 228.9972)" fill="#734EFF" cx="529.8" cy="501.6" rx="17.5" ry="5.8"/>
<ellipse transform="matrix(0.9305 -0.3664 0.3664 0.9305 -139.3146 239.7708)" fill="#734EFF" cx="562" cy="486.9" rx="17.5" ry="5.8"/>
<ellipse transform="matrix(0.9305 -0.3664 0.3664 0.9305 -131.723 250.5643)" fill="#734EFF" cx="594.2" cy="472.3" rx="17.5" ry="5.8"/>
<ellipse transform="matrix(0.9305 -0.3664 0.3664 0.9305 -124.0999 261.338)" fill="#734EFF" cx="626.4" cy="457.6" rx="17.5" ry="5.8"/>
<ellipse transform="matrix(0.9757 -0.2192 0.2192 0.9757 -97.2682 153.4539)" fill="#734EFF" cx="642.9" cy="515.1" rx="17.5" ry="5.8"/>
<ellipse transform="matrix(0.9757 -0.2192 0.2192 0.9757 -94.2736 161.4427)" fill="#734EFF" cx="680.4" cy="505.6" rx="17.5" ry="5.8"/>
<ellipse transform="matrix(0.9504 -0.3109 0.3109 0.9504 -113.9283 236.5062)" fill="#734EFF" cx="684.9" cy="475.6" rx="17.5" ry="5.8"/>
<ellipse transform="matrix(0.8915 -0.453 0.453 0.8915 -145.9221 376.8973)" fill="#734EFF" cx="713.9" cy="493.1" rx="17.5" ry="5.8"/>
<ellipse transform="matrix(0.8915 -0.453 0.453 0.8915 -135.2025 389.6576)" fill="#734EFF" cx="745.9" cy="477.1" rx="17.5" ry="5.8"/>
<ellipse transform="matrix(0.7626 -0.6469 0.6469 0.7626 -111.1046 611.4268)" fill="#734EFF" cx="777.4" cy="457.1" rx="17.5" ry="5.8"/>
<ellipse transform="matrix(0.9305 -0.3664 0.3664 0.9305 -116.4767 272.1116)" fill="#734EFF" cx="658.6" cy="442.9" rx="17.5" ry="5.8"/>
<ellipse transform="matrix(0.9305 -0.3664 0.3664 0.9305 -108.8536 282.8852)" fill="#734EFF" cx="690.8" cy="428.2" rx="17.5" ry="5.8"/>
<ellipse transform="matrix(0.9305 -0.3664 0.3664 0.9305 -101.5273 294.0947)" fill="#734EFF" cx="724" cy="414.5" rx="17.5" ry="5.8"/>
<ellipse transform="matrix(0.9305 -0.3664 0.3664 0.9305 -94.163 305.6906)" fill="#734EFF" cx="758.3" cy="400.9" rx="17.5" ry="5.8"/>
<ellipse transform="matrix(0.9318 -0.363 0.363 0.9318 -136.0196 256.9563)" fill="#734EFF" cx="615.7" cy="490.4" rx="5.8" ry="17.5"/>
<ellipse transform="matrix(0.9318 -0.363 0.363 0.9318 -116.1126 220.8954)" fill="#734EFF" cx="529.7" cy="419.4" rx="5.8" ry="17.5"/>
<ellipse transform="matrix(0.9318 -0.363 0.363 0.9318 -103.7271 242.8083)" fill="#734EFF" cx="594.2" cy="397.4" rx="5.8" ry="17.5"/>
<ellipse transform="matrix(0.9318 -0.363 0.363 0.9318 -78.2543 282.3683)" fill="#734EFF" cx="712.2" cy="349.4" rx="5.8" ry="17.5"/>
<ellipse transform="matrix(0.9318 -0.363 0.363 0.9318 -71.8216 295.7781)" fill="#734EFF" cx="751.1" cy="339" rx="5.8" ry="17.5"/>
<ellipse transform="matrix(0.9712 -0.2381 0.2381 0.9712 -107.1235 163.9714)" fill="#734EFF" cx="625.2" cy="525.4" rx="5.8" ry="17.5"/>
<ellipse fill="#734EFF" cx="658.2" cy="469.4" rx="5.8" ry="17.5"/>
<ellipse fill="#734EFF" cx="658.7" cy="507.9" rx="5.8" ry="17.5"/>
<ellipse transform="matrix(0.9712 -0.2381 0.2381 0.9712 -110.4564 173.7251)" fill="#734EFF" cx="663.9" cy="544.1" rx="5.8" ry="17.5"/>
<ellipse transform="matrix(0.9712 -0.2381 0.2381 0.9712 -115.9477 167.262)" fill="#734EFF" cx="634.4" cy="563.6" rx="5.8" ry="17.5"/>
<ellipse transform="matrix(0.5944 -0.8041 0.8041 0.5944 43.2487 500.0806)" fill="#734EFF" cx="517.4" cy="207.2" rx="5.8" ry="17.5"/>
<ellipse transform="matrix(0.7071 -0.7071 0.7071 0.7071 -14.8385 406.7806)" fill="#734EFF" cx="483.6" cy="221.3" rx="5.8" ry="17.5"/>
<ellipse transform="matrix(0.7071 -0.7071 0.7071 0.7071 -25.912 432.2607)" fill="#734EFF" cx="508.8" cy="247.4" rx="5.8" ry="17.5"/>
<ellipse transform="matrix(0.7592 -0.6509 0.6509 0.7592 -50.7079 413.8037)" fill="#734EFF" cx="533.9" cy="275.4" rx="5.8" ry="17.5"/>
<ellipse transform="matrix(0.8977 -0.4406 0.4406 0.8977 -78.6796 274.9691)" fill="#734EFF" cx="552.8" cy="306.9" rx="5.8" ry="17.5"/>
<ellipse transform="matrix(0.9086 -0.4176 0.4176 0.9086 -91.8189 250.1826)" fill="#734EFF" cx="525.8" cy="334.9" rx="17.5" ry="5.8"/>
<ellipse transform="matrix(0.9086 -0.4176 0.4176 0.9086 -110.5075 222.7645)" fill="#734EFF" cx="453.8" cy="363.9" rx="17.5" ry="5.8"/>
<ellipse transform="matrix(0.9421 -0.3352 0.3352 0.9421 -94.4614 166.9068)" fill="#734EFF" cx="436.3" cy="357.1" rx="5.8" ry="17.5"/>
<ellipse transform="matrix(0.9421 -0.3352 0.3352 0.9421 -83.4813 160.5246)" fill="#734EFF" cx="423.3" cy="322.1" rx="5.8" ry="17.5"/>
<ellipse transform="matrix(0.9086 -0.4176 0.4176 0.9086 -101.1828 235.3838)" fill="#734EFF" cx="487.3" cy="348.9" rx="17.5" ry="5.8"/>
<ellipse transform="matrix(0.866 -0.5 0.5 0.866 -111.0538 300.3838)" fill="#734EFF" cx="505" cy="357.4" rx="5.8" ry="17.5"/>
<ellipse transform="matrix(0.9086 -0.4176 0.4176 0.9086 -82.1026 263.5914)" fill="#734EFF" cx="561.3" cy="319.4" rx="17.5" ry="5.8"/>
<ellipse transform="matrix(0.9086 -0.4176 0.4176 0.9086 -72.9867 276.2564)" fill="#734EFF" cx="594.8" cy="304.9" rx="17.5" ry="5.8"/>
<ellipse transform="matrix(0.9086 -0.4176 0.4176 0.9086 -61.1039 293.5673)" fill="#734EFF" cx="640.3" cy="286.4" rx="17.5" ry="5.8"/>
<ellipse transform="matrix(0.9086 -0.4176 0.4176 0.9086 -52.1968 306.278)" fill="#734EFF" cx="673.8" cy="272.4" rx="17.5" ry="5.8"/>
<ellipse transform="matrix(0.9086 -0.4176 0.4176 0.9086 -42.8917 317.8076)" fill="#734EFF" cx="704.8" cy="256.9" rx="17.5" ry="5.8"/>
<ellipse transform="matrix(0.9086 -0.4176 0.4176 0.9086 -34.2847 330.1464)" fill="#734EFF" cx="737.3" cy="243.4" rx="17.5" ry="5.8"/>
<ellipse transform="matrix(0.9086 -0.4176 0.4176 0.9086 -25.1688 342.8114)" fill="#734EFF" cx="770.8" cy="228.9" rx="17.5" ry="5.8"/>
<ellipse transform="matrix(0.9166 -0.3998 0.3998 0.9166 -44.5481 286.8487)" fill="#734EFF" cx="665.3" cy="250.2" rx="5.8" ry="17.5"/>
<ellipse transform="matrix(0.9166 -0.3998 0.3998 0.9166 -32.5639 278.2996)" fill="#734EFF" cx="650.8" cy="217.2" rx="5.8" ry="17.5"/>
<ellipse transform="matrix(0.9166 -0.3998 0.3998 0.9166 -24.9222 291.9333)" fill="#734EFF" cx="687.3" cy="205.7" rx="5.8" ry="17.5"/>
<ellipse transform="matrix(0.9166 -0.3998 0.3998 0.9166 -37.2646 300.7658)" fill="#734EFF" cx="702.3" cy="239.7" rx="5.8" ry="17.5"/>
<ellipse transform="matrix(0.2523 -0.9676 0.9676 0.2523 353.3536 891.7963)" fill="#734EFF" cx="753.8" cy="217.2" rx="17.5" ry="5.8"/>
<ellipse transform="matrix(0.2523 -0.9676 0.9676 0.2523 396.0401 875.0419)" fill="#734EFF" cx="764.3" cy="181.2" rx="17.5" ry="5.8"/>
<ellipse transform="matrix(0.9166 -0.3998 0.3998 0.9166 -60.1968 297.8311)" fill="#734EFF" cx="683.8" cy="293.2" rx="5.8" ry="17.5"/>
<ellipse transform="matrix(0.9166 -0.3998 0.3998 0.9166 -50.7143 311.2894)" fill="#734EFF" cx="720.8" cy="277.2" rx="5.8" ry="17.5"/>
<ellipse transform="matrix(0.9166 -0.3998 0.3998 0.9166 -42.6729 324.8397)" fill="#734EFF" cx="757.3" cy="264.7" rx="5.8" ry="17.5"/>
<ellipse transform="matrix(0.6944 -0.7196 0.7196 0.6944 0.4976 464.4846)" fill="#734EFF" cx="547.1" cy="231.7" rx="5.8" ry="17.5"/>
<ellipse transform="matrix(0.6944 -0.7196 0.7196 0.6944 -11.2613 491.6475)" fill="#734EFF" cx="573.2" cy="259.1" rx="5.8" ry="17.5"/>
<ellipse transform="matrix(0.5 -0.866 0.866 0.5 56.0118 661.2855)" fill="#734EFF" cx="600.7" cy="282.1" rx="5.8" ry="17.5"/>
<ellipse transform="matrix(0.5914 -0.8064 0.8064 0.5914 14.3316 632.3101)" fill="#734EFF" cx="631.1" cy="302" rx="5.8" ry="17.5"/>
<ellipse transform="matrix(0.866 -0.5 0.5 0.866 -77.7234 371.1449)" fill="#734EFF" cx="653.7" cy="330.6" rx="5.8" ry="17.5"/>
<ellipse transform="matrix(0.9052 -0.425 0.425 0.9052 -91 319.3094)" fill="#734EFF" cx="670.2" cy="363.6" rx="5.8" ry="17.5"/>
<ellipse transform="matrix(0.9712 -0.2381 0.2381 0.9712 -80.7741 189.4657)" fill="#734EFF" cx="743.9" cy="429.1" rx="5.8" ry="17.5"/>
<ellipse transform="matrix(0.9712 -0.2381 0.2381 0.9712 -88.6492 192.8784)" fill="#734EFF" cx="754.1" cy="463.4" rx="5.8" ry="17.5"/>
<ellipse transform="matrix(0.9311 -0.3647 0.3647 0.9311 -98.8602 314.7222)" fill="#734EFF" cx="783.8" cy="419.1" rx="5.8" ry="17.5"/>
<ellipse transform="matrix(0.9311 -0.3647 0.3647 0.9311 -83.5063 305.0236)" fill="#734EFF" cx="765.8" cy="373.6" rx="5.8" ry="17.5"/>
<ellipse transform="matrix(0.9511 -0.309 0.309 0.9511 -104.2066 238.7747)" fill="#734EFF" cx="701.8" cy="448.4" rx="5.8" ry="17.5"/>
<ellipse transform="matrix(0.9511 -0.309 0.309 0.9511 -114.0271 244.7649)" fill="#734EFF" cx="715.8" cy="482.4" rx="5.8" ry="17.5"/>
<ellipse transform="matrix(0.9511 -0.309 0.309 0.9511 -123.66 250.3115)" fill="#734EFF" cx="728.4" cy="515.6" rx="5.8" ry="17.5"/>
</svg>
